<svg xmlns="http://www.w3.org/2000/svg" width="141.173" height="135.719" viewBox="0 0 141.173 135.719"><defs><style>.a{fill:#010a20;}</style></defs><path class="a" d="M385.822,381.593c.646,0,1.039.028,1.46,0,7.581-.337,15.134-.7,22.715-1.011a18.854,18.854,0,0,1,4.184.168c3.369.646,5.166,2.892,5.222,6.317.056,4.212.028,8.423.028,12.635v29.9a7.984,7.984,0,0,1-.758,3.79,6.6,6.6,0,0,1-7.328,3.425,6.714,6.714,0,0,1-5.222-6.205c-.056-3.987-.028-7.946-.028-11.933V395.66c0-.421-.028-.814-.056-1.4-1.628.084-3.173.14-4.857.225V436.2h-5.952V399.675H362.293V436.2h-5.868c-.028-.028-.084-.056-.112-.084a.213.213,0,0,1-.056-.112,3.805,3.805,0,0,1-.056-.562V349.922c1.011-.028,1.965-.028,2.92-.056h3.117c.084,1.629.028,3.2.028,4.773V393.33a38.372,38.372,0,0,0,8.142.168,6.385,6.385,0,0,0-.505-.786,8.624,8.624,0,0,1-1.937-5.587c0-10.332-.028-20.693,0-31.025a8.912,8.912,0,0,1,17.689-1.741,16.748,16.748,0,0,1,.169,2.387v23.023C385.822,380.358,385.822,380.891,385.822,381.593Z" transform="translate(-356.2 -301.319)"/><path class="a" d="M696.778,436.194c-.505.028-.9.084-1.32.084h-4.6V399.666H657.948v36.416c-2.05.056-3.987.028-6.065.028V394.836a34.3,34.3,0,0,0-4.829-.365c-.028.618-.056,1.151-.056,1.713v33.552a6.834,6.834,0,0,1-3.931,6.6,6.706,6.706,0,0,1-9.546-5.447c-.112-1.909-.056-3.847-.056-5.756v-37.2a10.382,10.382,0,0,1,.225-2.639,6.579,6.579,0,0,1,6.205-4.8c1.909,0,3.819.2,5.728.337,4.661.337,9.322.7,13.983,1.067,1.769.14,3.538.309,5.307.421.646.056,1.292.056,2.106.112V356.37a8.907,8.907,0,0,1,3.117-7.216,8.893,8.893,0,0,1,14.713,6.542c.112,3.931.028,7.862.028,11.792,0,6.093-.056,12.158.028,18.25a10.354,10.354,0,0,1-2.5,7.525c.9.365,5.644.449,8.086.168.028-14.46,0-28.92,0-43.492h6.205C696.778,378.72,696.778,407.415,696.778,436.194Z" transform="translate(-555.606 -301.282)"/><path class="a" d="M554.935,415.9v7.356H487.1V415.9Z" transform="translate(-450.347 -350.9)"/><path class="a" d="M731.584,255A11.33,11.33,0,1,1,720.1,266.315,11.342,11.342,0,0,1,731.584,255Z" transform="translate(-617.927 -235.176)"/><path class="a" d="M533.829,331.076H513.22c-.028-.337-.084-.618-.084-.9,0-4.212-.056-8.423,0-12.607a12.578,12.578,0,0,1,9.013-11.9,10.019,10.019,0,0,1,4.127-.421C528.775,313.837,531.3,322.4,533.829,331.076Z" transform="translate(-469.055 -271.27)"/><path class="a" d="M424.9,277.585a11.343,11.343,0,1,1,11.315-11.343A11.306,11.306,0,0,1,424.9,277.585Z" transform="translate(-397.411 -235.103)"/><path class="a" d="M571.158,213.093a14.349,14.349,0,1,1,14.46-13.954A14.388,14.388,0,0,1,571.158,213.093ZM560.432,196.3a9.353,9.353,0,0,0-.14,4.829,11.185,11.185,0,0,0,18.138,6.317,10.79,10.79,0,0,0,3.819-9.771c-.225-2.05-.309-2.443-2.611-3.285a5.428,5.428,0,0,0-1.376-.253,8.149,8.149,0,0,0-5.25,1.6,10.8,10.8,0,0,1-9.1,1.544A35.4,35.4,0,0,1,560.432,196.3Z" transform="translate(-500.543 -184.397)"/><path class="a" d="M628,331.211c2.667-8.732,5.25-17.3,7.862-25.859a8.365,8.365,0,0,1,3.65.281,12.45,12.45,0,0,1,9.266,11.4c.112,4.52.028,9.069.028,13.618a4.712,4.712,0,0,1-.112.562C641.87,331.239,635.019,331.211,628,331.211Zm8.788-11.989h6.6V317.2h-6.6Z" transform="translate(-551.686 -271.322)"/><path class="a" d="M600.726,305.6a4.65,4.65,0,0,1,.309.674c.337.87.983,1.769.87,2.611-.084.758-.955,1.4-1.544,2.078a1.291,1.291,0,0,0-.309,1.292c.2.674.337,1.348.562,2.134-1.544,1.1-3.089,2.218-4.857,3.482.253-2.3.983-4.212,1.376-6.317-.562-.618-1.179-1.32-1.825-1.993a1.027,1.027,0,0,1-.225-1.263c.365-.842.73-1.713,1.1-2.667C597.666,305.6,599.126,305.6,600.726,305.6Z" transform="translate(-527.922 -271.569)"/><path class="a" d="M602.169,362c.337,1.6.618,2.92.842,4.043-1.544,1.544-2.976,3-4.549,4.577-1.207-.955-2.415-2.078-3.762-3.285C597.2,365.538,599.585,363.825,602.169,362Z" transform="translate(-527.736 -312.134)"/><path class="a" d="M598.288,343.1c.309,1.263.562,2.33.87,3.566-2.611,1.825-5.222,3.678-8.058,5.672.14-.7.2-1.151.309-1.6a10.617,10.617,0,0,1,.955-3.2,10.782,10.782,0,0,1,2.611-2.078C595.985,344.7,597.052,343.97,598.288,343.1Z" transform="translate(-525.146 -298.54)"/></svg>