<svg xmlns="http://www.w3.org/2000/svg" width="13.088" height="10.684" viewBox="0 0 13.088 10.684"><defs><style>.a{fill:#606060;}</style></defs><g transform="translate(0 0)"><path class="a" d="M53.308,204.68a1.7,1.7,0,0,1-1.68,0l-3.8-2.332s-.343-.21-.343.266v2.329c0,1.227,2.232,2.55,4.986,2.55s4.986-1.323,4.986-2.55v-2.46c0-.383-.244-.2-.244-.2Z" transform="translate(-45.924 -196.809)"/><path class="a" d="M12.869,40.331a.352.352,0,0,0,0-.652l-5.794-2.9a1.117,1.117,0,0,0-1.063,0l-5.794,2.9a.352.352,0,0,0,0,.652l5.794,3.553a1.117,1.117,0,0,0,1.063,0" transform="translate(0 -36.648)"/><path class="a" d="M356.776,189.737v-3.924s0-.186-.108-.124a3.206,3.206,0,0,0-.382.237.329.329,0,0,0-.068.249v3.563a.1.1,0,0,1-.064.087.678.678,0,1,0,.684,0A.1.1,0,0,1,356.776,189.737Z" transform="translate(-344.147 -180.787)"/></g></svg>