<svg xmlns="http://www.w3.org/2000/svg" width="10.663" height="13.553" viewBox="0 0 10.663 13.553"><defs><style>.a{fill:#606060;}</style></defs><g transform="translate(0 0)"><path class="a" d="M17.341,5.838c.359-.077.691-.374.745-1.032.045-.539-.094-.817-.3-.958.567-2.31-1-2.762-1-2.762A2.344,2.344,0,0,0,13.344.495a4.072,4.072,0,0,0-1.009.865,3.6,3.6,0,0,0-.77,2.412c-.278.106-.5.375-.443,1.034.057.689.416.982.794,1.042a3.244,3.244,0,0,0,2.71,2.267A3.249,3.249,0,0,0,17.341,5.838Zm-2.714,1.7c-1.379,0-2.489-1.872-2.489-3.422,0-.212.007-.409.02-.592A4.729,4.729,0,0,0,16.016,2.1a4.53,4.53,0,0,1,1.1,1.964c0,.017,0,.033,0,.05C17.115,5.663,16.006,7.535,14.627,7.535Z" transform="translate(-9.261 0)"/><path class="a" d="M9.445,28.391l.16-.661a.385.385,0,0,1,.111-.192L9.667,27.5l-1.426-1.18-.868.2a3.15,3.15,0,0,0-2.5,3.01V31.4a.694.694,0,0,0,.719.661H9.261l.56-3.193A.39.39,0,0,1,9.445,28.391Z" transform="translate(-4.869 -18.513)"/><path class="a" d="M26.652,26.525l-.856-.2L24.372,27.5l-.047.036a.386.386,0,0,1,.112.192l.159.661a.39.39,0,0,1-.376.482l.56,3.193h3.673a.667.667,0,0,0,.689-.661V29.535A3.136,3.136,0,0,0,26.652,26.525Z" transform="translate(-18.478 -18.513)"/></g></svg>