<svg xmlns="http://www.w3.org/2000/svg" width="501.138" height="116.625" viewBox="0 0 501.138 116.625"><defs><style>.a{fill:#efa500;}.b{fill:#7f961e;}.c{fill:#008cff;}.d{fill:#e26003;}.e,.g,.h{fill:#fff;}.f{fill:#eb1f3c;}.g{stroke:#fff;stroke-miterlimit:10;stroke-width:0.25px;}.h{font-size:18px;font-family:Lato-Bold, Lato;font-weight:700;}.i{fill:#d2d2d2;}</style></defs><g transform="translate(-628.034 -266)"><g transform="translate(300.034 62)"><g transform="translate(687 232)"><g transform="translate(14.646 0)"><path class="a" d="M993.251,406.11s-2.279-16.987,15.122-23.823,27.138,4.557,30.866,12.015a38.318,38.318,0,0,1,3.936,12.015h-9.115s-4.765-17.815-18.023-17.608c-11.394.207-15.537,13.672-15.329,17.608Z" transform="translate(-950.576 -355.15)"/><path class="b" d="M1012.964,408.436s-1.45-12.844,5.594-21.751c8.7-11.186,23.616-8.079,23.616-8.079v7.665a14.741,14.741,0,0,0-15.951,4.35c-4.972,5.8-4.143,17.816-4.143,17.816h-9.115Z" transform="translate(-929.48 -357.268)"/><path class="c" d="M986.472,400.1s3.729-9.944,12.429-8.286a13.9,13.9,0,0,1,9.944,8.286h7.458s-4.765-13.465-18.023-14.087c-15.951-.829-19.68,14.087-19.68,14.087" transform="translate(-966.171 -348.936)"/><circle class="d" cx="6.836" cy="6.836" r="6.836" transform="translate(16.987 18.644)"/><circle class="b" cx="9.115" cy="9.115" r="9.115" transform="translate(71.883)"/><path class="d" d="M972.807,388.715s7.25-1.036,10.772,4.35c2.9,4.35,1.45,10.772,1.45,10.772h7.665s.828-8.7-4.765-14.915c-6.008-6.836-15.33-6.215-15.33-6.215v6.008Z" transform="translate(-972.6 -352.463)"/></g><g transform="translate(0 59.468)"><path class="e" d="M965.251,407.952V402.84c0-1.7-.568-1.7-1.515-1.7h-.947c-.189,0-.189,0-.189-.189v-.757c0-.189,0-.189.189-.189h9.088c2.083,0,3.976.189,4.922.757a4.113,4.113,0,0,1,2.272,3.976c0,1.893-1.136,3.787-4.165,4.733h0c3.6.947,5.491,2.651,5.491,5.68a5.557,5.557,0,0,1-2.272,4.354c-1.136.568-3.219,1.136-6.816,1.136h-8.33c-.379,0-.379,0-.379-.379v-.568c0-.189,0-.189.379-.189h.947c.946,0,.946-.379,1.136-1.136,0-.568.19-4.544.19-6.816v-3.6Zm4.165,1.136c1.136.189,3.029,0,3.786-.757a4.294,4.294,0,0,0,1.325-3.408,3.572,3.572,0,0,0-1.136-2.84,5.473,5.473,0,0,0-2.651-.947c-.568,0-1.325,0-1.325.568v7.384Zm0,6.626c0,2.651.568,3.787,2.083,3.787,2.083,0,3.976-.947,3.976-4.544a4.532,4.532,0,0,0-2.651-4.544,9.773,9.773,0,0,0-3.6-.568v5.869Z" transform="translate(-962.6 -399.053)"/><path class="e" d="M978.569,414.692c0,.946.379,1.136.947,1.136h1.136c.189,0,.189,0,.189.189v.568c0,.189,0,.189-.189.189h-7.763c-.189,0-.189,0-.189-.379v-.568c0-.19,0-.19.379-.19h.757a.693.693,0,0,0,.757-.757V409.2a2.29,2.29,0,0,0-1.136-2.272l-.568-.379a.185.185,0,0,1-.189-.189v-.189c0-.189,0-.189.189-.189l3.976-1.7a.662.662,0,0,0,.379-.189.407.407,0,0,1,.379.379l.189,2.272H978q1.42-2.84,3.408-2.84c.947,0,1.515.568,1.515,1.7a2.027,2.027,0,0,1-1.893,1.7,1.419,1.419,0,0,1-.947-.189,1.139,1.139,0,0,0-.757-.189c-.379,0-.568.189-.757.568a4.358,4.358,0,0,0-.568,1.7v5.491Z" transform="translate(-953.578 -395.57)"/><path class="e" d="M985.994,419.643h-7.005c-.189,0-.189,0-.189-.379V418.7c0-.189,0-.189.379-.189h1.136a.5.5,0,0,0,.568-.568v-6.626c0-.757-.189-1.325-1.326-1.893-.378-.189-.378-.189-.378-.379v-.379s0-.189.378-.189l4.355-1.325a1.431,1.431,0,0,1,.757-.189.407.407,0,0,1,.379.379V417.75c0,.568.189.757.568.757h.947c.189,0,.379,0,.379.189v.568C986.184,419.643,986.184,419.643,985.994,419.643Zm-3.976-14.768a2.1,2.1,0,0,1-2.083-2.083,2.131,2.131,0,0,1,2.272-1.893,1.948,1.948,0,0,1,2.083,1.893A2.034,2.034,0,0,1,982.019,404.876Z" transform="translate(-948.129 -398.249)"/><path class="e" d="M991.82,402.908c0-.757-.379-1.325-1.893-1.7-.189,0-.189,0-.189-.189v-.568c0-.189,0-.189.189-.189,1.7-.189,3.976-.379,4.923-.568.379,0,.568-.189.757-.189s.379.189.189.568c-.189,1.515-.189,5.68-.189,9.656v6.437c0,1.136,0,2.272.379,2.651.189.379.568.379,1.325.379.379,0,.379,0,.379.189v.379c0,.189,0,.189-.189.379l-4.354,1.136c-.189,0-.379,0-.379-.189l-.379-1.515a5.356,5.356,0,0,1-3.787,1.7,4.157,4.157,0,0,1-3.408-1.325,5.144,5.144,0,0,1-1.893-4.165,7.37,7.37,0,0,1,2.083-5.68,5.234,5.234,0,0,1,4.355-1.893,7.058,7.058,0,0,1,2.272.379Zm.189,9.277a2.81,2.81,0,0,0-.189-1.325,2.627,2.627,0,0,0-2.272-1.325,1.722,1.722,0,0,0-1.515.757,4.871,4.871,0,0,0-.947,3.408c0,3.408,1.514,5.68,3.219,5.68a1.731,1.731,0,0,0,1.325-.568,2.207,2.207,0,0,0,.379-1.325Z" transform="translate(-944.109 -399.5)"/><path class="e" d="M992.525,423.512a2.18,2.18,0,0,1-1.325-2.272c0-1.515,1.7-2.461,3.029-3.029v-.189a2.557,2.557,0,0,1-2.083-2.272c0-1.7,1.7-2.651,2.651-3.029h0a4.505,4.505,0,0,1-2.461-4.354c0-1.893,1.514-4.165,5.68-4.165a4.74,4.74,0,0,1,3.976,1.7,4.459,4.459,0,0,1,2.461-.947,1.393,1.393,0,0,1,1.515,1.515,1.423,1.423,0,0,1-1.326,1.325.874.874,0,0,1-.946-.568,1.436,1.436,0,0,0-.758-.379c-.189,0-.379.189-.568.189a3.036,3.036,0,0,1,.379,1.893,4.033,4.033,0,0,1-1.325,3.029,6.289,6.289,0,0,1-3.976,1.325h-1.7c-.379.189-1.136.757-1.136,1.325,0,.947.757,1.136,3.976.947,1.893,0,3.408,0,4.922,1.136a3.657,3.657,0,0,1,1.325,2.84,4.23,4.23,0,0,1-1.7,3.218c-1.136.947-3.219,1.7-6.248,1.7A9.077,9.077,0,0,1,992.525,423.512Zm9.466-2.651c0-1.515-1.136-2.461-3.786-2.272l-2.461.189a2.248,2.248,0,0,0-1.515,1.893,2.33,2.33,0,0,0,.947,1.893,4.563,4.563,0,0,0,2.84.757C1000.1,423.322,1001.992,422.376,1001.992,420.861Zm-5.68-14.768a6.983,6.983,0,0,0-.568,3.219,4.5,4.5,0,0,0,.568,2.272,1.719,1.719,0,0,0,1.325.568c1.325,0,1.7-1.893,1.7-4.165a11.076,11.076,0,0,0-.189-1.893c-.189-.568-.568-.757-1.325-.757C997.069,405.147,996.69,405.525,996.312,406.093Z" transform="translate(-937.052 -395.302)"/><path class="e" d="M1002.8,409.323v.757c0,3.029,1.7,4.544,3.787,4.544a3.787,3.787,0,0,0,3.218-1.515c0-.189.189-.189.379,0l.568.189c.189,0,.189.189,0,.757a6.515,6.515,0,0,1-9.467,1.7,6.565,6.565,0,0,1-2.083-4.923,6.679,6.679,0,0,1,1.325-4.165c.947-1.515,2.84-2.272,5.112-2.272,4.733,0,4.922,4.544,4.922,4.923s-.189.379-.947.379H1002.8Zm2.84-1.136c.568,0,.947-.189.947-.568,0-1.325-.568-2.461-1.325-2.461-1.325,0-2.083,1.136-2.272,3.029Z" transform="translate(-929.906 -395.123)"/><path class="e" d="M1012.816,411.36v7.952h1.7a32.081,32.081,0,0,0,4.165-.189c1.515-.189,3.6-3.6,3.976-4.733,0-.189.189-.189.379-.189l.568.189v.189c0,.189-1.325,4.923-1.325,5.68h-16.093c-.189,0-.189,0-.189-.189v-.757c0-.189,0-.189.189-.189h.947c1.136,0,1.325-.379,1.325-.757V402.272c0-.757-.189-.947-.947-.947h-1.136c-.189,0-.189-.189-.189-.379v-.757c0-.189,0-.189.189-.189h8.9c.189,0,.189,0,.189.379v.568c0,.189,0,.189-.379.189h-1.325c-.947,0-.947.379-.947,1.136v9.088Z" transform="translate(-923.832 -399.053)"/><path class="e" d="M1022.448,407.419c0-.568,0-1.325-.378-1.515a2.691,2.691,0,0,0-1.136-.379,4.459,4.459,0,0,0-1.515.379c-.378.379,0,.757,0,1.7a1.748,1.748,0,0,1-1.893,1.7c-.757,0-1.325-.379-1.325-.947a3.155,3.155,0,0,1,.757-2.083,8.069,8.069,0,0,1,5.491-2.083,4.894,4.894,0,0,1,3.029.757,3.213,3.213,0,0,1,.757,2.461v5.68c0,1.515.189,1.893.568,1.893a.846.846,0,0,0,.758-.568c.189-.189.189-.189.379-.189l.378.189c.189,0,.189.189,0,.379a3.1,3.1,0,0,1-2.84,1.893,2.457,2.457,0,0,1-2.651-1.7h-.189a5.438,5.438,0,0,1-2.461,1.515,7.1,7.1,0,0,1-2.083.189c-.947,0-1.893-1.136-1.893-2.651a3.848,3.848,0,0,1,2.461-3.6,32.466,32.466,0,0,0,3.787-1.893v-1.136Zm0,2.651c-1.325.757-2.65,1.325-2.65,3.219,0,1.325.568,1.893,1.325,1.893a1.53,1.53,0,0,0,1.325-.947Z" transform="translate(-914.72 -395.301)"/><path class="e" d="M1025.33,421.273h-.379l-.378-.189c-.189,0-.189,0-.189-.189V405.18c0-1.893-.379-2.272-1.325-2.461l-.379-.189c-.379,0-.379-.189-.379-.189v-.379s0-.189.379-.379a23.211,23.211,0,0,0,4.355-1.7c.568-.189.757-.379.947-.379s.379.189.379.568c0,.189-.19,3.6-.19,6.437v3.219a5.458,5.458,0,0,1,3.787-1.325,5.289,5.289,0,0,1,4.165,2.461c.568.757.757,1.893.757,3.787,0,3.029-2.84,6.816-6.626,6.816a9.8,9.8,0,0,1-3.976-.757Zm3.029-6.626c0,2.461,0,3.408.378,4.165a2.021,2.021,0,0,0,1.7,1.325,2.782,2.782,0,0,0,2.461-1.515,6.541,6.541,0,0,0,.378-3.219c0-3.787-1.515-5.112-3.029-5.112a3.055,3.055,0,0,0-1.7.568v3.787Z" transform="translate(-909.271 -399.5)"/><path class="e" d="M1038.781,415.649c.757,0,2.272-.568,4.355-3.029a.587.587,0,0,1,.379-.189l.378.379c.19,0,.19.189,0,.379L1042,417.164a29.351,29.351,0,0,0-3.408-.379h-7.005c-.379,0-.379-.189-.19-.757l6.627-10.413h-2.083c-1.515,0-2.272.189-4.544,3.219-.189.189-.189.189-.378,0l-.378-.189a.262.262,0,0,1,0-.379l1.7-4.165c.568.189,1.136.189,1.7.379a19.719,19.719,0,0,0,3.976.189h4.544c.379,0,.379.379.189.568l-6.816,10.413Z" transform="translate(-901.897 -395.391)"/></g></g></g><g transform="translate(547.234 146.3)"><path class="e" d="M249.9,194.046c2.155-1.864,3.379-2.971,3.612-3.146v12.117l-.466-.175a14.366,14.366,0,0,0-4.078-8.156,10.178,10.178,0,0,0-7.457-3.262,9.321,9.321,0,0,0-5.01,1.34,5.15,5.15,0,0,0-2.621,4.719,5.682,5.682,0,0,0,2.854,4.893,24.369,24.369,0,0,0,7.631,2.854q6.816,1.66,8.913,3.146c2.272,1.689,3.437,4.427,3.437,8.33,0,3.67-1.165,6.466-3.553,8.505a10.893,10.893,0,0,1-7.282,2.563A15.58,15.58,0,0,1,240,226.726a10.734,10.734,0,0,1-4.486-3.5q-3.321,4.369-3.5,4.544V212.454l.466-.058a39.14,39.14,0,0,0,2.388,7.69,16.388,16.388,0,0,0,2.621,4.078q2.971,3.146,8.563,3.146a7.715,7.715,0,0,0,4.777-1.689,6.075,6.075,0,0,0,2.5-5.01,6.443,6.443,0,0,0-3.379-5.767,35.124,35.124,0,0,0-8.1-3.029c-3.845-1.049-6.525-2.155-8.039-3.262a8.562,8.562,0,0,1-3.32-7.282,9.763,9.763,0,0,1,3.029-7.282,9.99,9.99,0,0,1,7.224-2.971,13.9,13.9,0,0,1,5.825,1.049A15.017,15.017,0,0,1,249.9,194.046Z" transform="translate(-62.493 -28.888)"/><path class="e" d="M317.455,191.517v15.845H316.7c-.874-6.058-2.214-10.195-4.078-12.466a8.044,8.044,0,0,0-6.7-2.854,3.365,3.365,0,0,0-1.223.117c-.175.117-.233.583-.233,1.456v30.059a5.076,5.076,0,0,0,.233,2.039c.058.175.35.291.757.466a11.492,11.492,0,0,0,2.563.408c1.282.117,2.971.175,5.126.175v.583H288.969v-.583q3.146,0,5.068-.175a11.493,11.493,0,0,0,2.563-.408c.466-.175.757-.35.874-.641a5.95,5.95,0,0,0,.175-1.922V193.555q0-1.485-.35-1.573a4.794,4.794,0,0,0-1.165-.058,7.938,7.938,0,0,0-6.583,2.8q-2.8,3.5-4.194,12.408H284.6V191.4h32.855Z" transform="translate(-85.077 -29.097)"/><path class="e" d="M453.341,219.279v1.806a11.289,11.289,0,0,1-.641,4.544c-.641,1.4-1.981,2.1-3.961,2.1-2.563,0-4.253-.99-5.068-2.913-.641-1.573-.99-4.544-.99-8.913v-1.165a8.2,8.2,0,0,1,.058-1.165c0-1.981-.466-3.262-1.4-3.961a6.537,6.537,0,0,0-3.961-1.049h-6.524v14.913a7.413,7.413,0,0,0,.175,2.1,1.422,1.422,0,0,0,.816.7,7.884,7.884,0,0,0,2.621.291c1.34.058,2.68.058,4.136.058v.524H416v-.583c3.9,0,6.233-.175,6.991-.466a1.407,1.407,0,0,0,.757-.641,4.892,4.892,0,0,0,.233-2.039V194.754a4.234,4.234,0,0,0-.233-1.922c-.058-.175-.291-.291-.7-.466-1.049-.408-3.437-.641-7.049-.641V191.2h22.719c4.02,0,7.165,1.049,9.554,3.2,1.864,1.689,2.854,3.5,2.854,5.3a7.03,7.03,0,0,1-2.214,5.3c-1.806,1.689-4.6,2.738-8.505,3.146a9.621,9.621,0,0,1,7.806,6.583,26.362,26.362,0,0,1,.932,8.214,7.3,7.3,0,0,0,.291,2.33c.175.466.641.7,1.34.7.816,0,1.34-.641,1.631-1.864a23.253,23.253,0,0,0,.466-5.126h.466Zm-22.486-11.185h5.126a10,10,0,0,0,6-1.515c1.573-1.165,2.33-3.2,2.33-6.058q0-4.719-1.922-6.641c-1.282-1.282-3.379-1.922-6.35-1.922h-2.68a5.939,5.939,0,0,0-1.689.175,1.05,1.05,0,0,0-.7.7,9.242,9.242,0,0,0-.117,2.155Z" transform="translate(-139.931 -29.013)"/><path class="e" d="M505.1,194.046c2.155-1.864,3.379-2.971,3.612-3.146v12.117l-.466-.175a14.365,14.365,0,0,0-4.078-8.156,10.178,10.178,0,0,0-7.457-3.262,9.321,9.321,0,0,0-5.01,1.34,5.15,5.15,0,0,0-2.621,4.719,5.682,5.682,0,0,0,2.854,4.893,24.369,24.369,0,0,0,7.631,2.854q6.816,1.66,8.913,3.146c2.272,1.689,3.437,4.427,3.437,8.33,0,3.67-1.165,6.466-3.553,8.505a10.893,10.893,0,0,1-7.282,2.563,15.58,15.58,0,0,1-5.884-1.049,10.735,10.735,0,0,1-4.486-3.5q-3.321,4.369-3.5,4.544V212.454l.466-.058a39.14,39.14,0,0,0,2.388,7.69,16.387,16.387,0,0,0,2.621,4.078q2.971,3.146,8.563,3.146a7.715,7.715,0,0,0,4.777-1.689,6.075,6.075,0,0,0,2.5-5.01,6.443,6.443,0,0,0-3.379-5.767,35.124,35.124,0,0,0-8.1-3.029c-3.845-1.049-6.524-2.155-8.039-3.262a8.562,8.562,0,0,1-3.321-7.282,9.763,9.763,0,0,1,3.029-7.282,9.99,9.99,0,0,1,7.224-2.971,13.9,13.9,0,0,1,5.825,1.049A18.421,18.421,0,0,1,505.1,194.046Z" transform="translate(-169.028 -28.888)"/><g transform="translate(81.557 121.875)"><path class="f" d="M161.5,200.41V122H82.1v78.41Z" transform="translate(-82.1 -122)"/><path class="e" d="M106.685,184.171V190.7a4.539,4.539,0,0,0,.233,1.806c.291.757,2.447.99,3.146,1.049a32.891,32.891,0,0,0,9.262-.408,12.312,12.312,0,0,0,2.8-.99,8.568,8.568,0,0,0,5.185-7.224h.7v9.728H95.5v-.641c1.049,0,4.311.117,5.01-1.282a6.634,6.634,0,0,0,.175-2.039V160.4a5.407,5.407,0,0,0-.233-2.155c-.058-.175-.291-.291-.7-.466a13.02,13.02,0,0,0-4.253-.7V156.5h63.789v10.661h-.757v-.175c-.466-3.2-.757-5.825-3.029-7.573-1.864-1.456-5.476-1.922-8.214-1.922a3.365,3.365,0,0,0-1.223.117c-.175.117-.291.175-.291,1.107V190.7a5.974,5.974,0,0,0,.233,2.214c.058.175.35.35.757.524a16.366,16.366,0,0,0,5.068.641v.641H133.657v-.641a16.22,16.22,0,0,0,5.01-.641,1.548,1.548,0,0,0,.874-.641,6.634,6.634,0,0,0,.175-2.039V158.83c0-1.049-.058-1.107-.291-1.223a4.794,4.794,0,0,0-1.165-.058c-2.447,0-5.825.524-7.573,1.864-2.039,1.631-2.68,5.126-3.029,7.573H126.9c-.233-1.515-.35-2.8-.524-3.845-.641-3.845-3.029-4.719-6.7-5.3a52.45,52.45,0,0,0-7.515-.35,13.305,13.305,0,0,0-4.486.583,1.1,1.1,0,0,0-.7.641,3.853,3.853,0,0,0-.175,1.689V165.3h0v8.738h8.505a4.152,4.152,0,0,0,4.136-4.136v-2.5h1.282v14.8h-1.282v-2.563a4.152,4.152,0,0,0-4.136-4.136h-8.563l-.058,8.68Z" transform="translate(-87.694 -136.402)"/></g><g transform="translate(168.007 121.7)"><path class="e" d="M253.627,139.176c0,4.311-.816,7.515-2.5,9.437-1.631,1.981-4.078,2.971-7.224,2.971a13.184,13.184,0,0,1-9.029-3.2c-2.913-2.563-4.369-6.291-4.369-11.068a15.587,15.587,0,0,1,4.427-11.534c2.563-2.563,5.3-3.845,8.156-3.845a8.106,8.106,0,0,1,3.67.757,10.42,10.42,0,0,1,3.67,3.2l2.214-4.194h.233v12.991l-.35-.233c0-3.845-1.049-6.932-3.2-9.262-1.748-1.922-3.612-2.913-5.592-2.913a5.885,5.885,0,0,0-5.651,3.612c-1.165,2.388-1.689,6-1.689,10.835,0,4.777.641,8.33,1.864,10.777a5.959,5.959,0,0,0,5.651,3.67,8.478,8.478,0,0,0,6.583-2.5c1.806-1.981,2.738-5.126,2.738-9.5h.408Z" transform="translate(-230.5 -121.7)"/><path class="e" d="M289.527,141.224h-8.622l-1.4,3.961a8,8,0,0,0-.524,2.563,2.48,2.48,0,0,0,1.282,2.388,7.385,7.385,0,0,0,3.554.7v.466H272.4v-.466a5.507,5.507,0,0,0,4.777-2.33,24.927,24.927,0,0,0,2.447-5.418L287.2,122h.874l9.67,26.331c.466,1.223.874,1.981,1.34,2.155a12.788,12.788,0,0,0,4.02.35v.466H286.556v-.466a26.99,26.99,0,0,0,4.6-.233c.816-.175,1.282-.524,1.282-.99l-.117-.466Zm-.175-.466-4.078-11.418L281.2,140.758Z" transform="translate(-247.991 -121.825)"/><path class="e" d="M337.126,122.617,344.7,143.53l6.291-20.913H363.4v.408a16.944,16.944,0,0,0-5.359.524,1,1,0,0,0-.524.35,3.528,3.528,0,0,0-.233,1.631V148.6a4.924,4.924,0,0,0,.175,1.689c.058.117.291.233.641.408a13.055,13.055,0,0,0,1.922.35,28.985,28.985,0,0,0,3.379.117v.466H346.1v-.466c1.049,0,2.1-.058,2.971-.117a6.958,6.958,0,0,0,1.864-.35c.35-.117.524-.233.583-.408a4.924,4.924,0,0,0,.175-1.689l-.058-24.467c0-.524-.058-.757-.175-.757s-.233.233-.408.7l-8.214,27.5h-.99l-9.67-27.5-.35-.7c-.117,0-.117.233-.117.757v18.816c0,3.32.466,5.534,1.34,6.583s2.563,1.573,5.01,1.573v.466h-12.7V151.1c2.1,0,3.554-.524,4.427-1.631s1.282-2.913,1.282-5.476V130.073c0-2.621-.408-4.486-1.223-5.534s-2.33-1.573-4.544-1.573V122.5Z" transform="translate(-270.075 -122.034)"/><path class="e" d="M403.475,138.587v10.136a5.163,5.163,0,0,0,.175,1.689c.058.117.291.233.641.408a12.361,12.361,0,0,0,2.1.35c1.049.117,2.5.117,4.311.117v.466H391.3v-.466c1.515,0,2.8-.058,3.787-.117a8.206,8.206,0,0,0,2.039-.35,1.19,1.19,0,0,0,.641-.408,4.924,4.924,0,0,0,.175-1.689V125.6a4.34,4.34,0,0,0-.175-1.573,1,1,0,0,0-.524-.35,21.66,21.66,0,0,0-5.942-.466V122.8h17.418c3.554,0,6.35.816,8.447,2.447a7.562,7.562,0,0,1,2.913,6.117,6.278,6.278,0,0,1-2.272,4.66,10.544,10.544,0,0,1-7.515,2.621h-6.816Zm0-.408h4.544q3.757,0,5.243-1.922a11.214,11.214,0,0,0-.408-11.127c-1.107-1.34-2.8-1.981-5.126-1.981h-2.155a7.3,7.3,0,0,0-1.4.117.962.962,0,0,0-.583.583,9.934,9.934,0,0,0-.117,1.748Z" transform="translate(-297.627 -122.159)"/><path class="e" d="M466.981,143.073a8.343,8.343,0,0,1-3.554,7.34,8.742,8.742,0,0,1-5.185,1.689,16.009,16.009,0,0,1-8.505-2.1,7.317,7.317,0,0,1-3.787-6.466V125.713a4.742,4.742,0,0,0-.175-1.631,1,1,0,0,0-.524-.35,16.109,16.109,0,0,0-4.952-.524V122.8h17.243v.408c-1.4,0-2.5.058-3.321.117a13.52,13.52,0,0,0-1.864.35c-.408.175-.641.291-.7.408a3.528,3.528,0,0,0-.233,1.631v16.894c0,2.971.466,5.126,1.34,6.408,1.049,1.573,3.029,2.33,5.825,2.33a7.752,7.752,0,0,0,4.544-1.631,7.925,7.925,0,0,0,3.087-6.641V131.363c0-3.087-.466-5.185-1.456-6.408q-1.4-1.748-4.719-1.748V122.8h12.059v.408c-2.214,0-3.728.641-4.486,1.864a9.373,9.373,0,0,0-.816,4.544v13.457Z" transform="translate(-318.082 -122.159)"/><path class="e" d="M511.012,124.538c1.748-1.515,2.738-2.388,2.913-2.563v9.787l-.349-.117a11.62,11.62,0,0,0-3.262-6.583,8.387,8.387,0,0,0-6-2.68,7.376,7.376,0,0,0-4.02,1.049,4.226,4.226,0,0,0-2.1,3.787,4.629,4.629,0,0,0,2.272,3.961,18.614,18.614,0,0,0,6.175,2.272c3.67.874,6.059,1.748,7.224,2.563,1.864,1.34,2.8,3.612,2.8,6.7a8.478,8.478,0,0,1-2.854,6.874,8.625,8.625,0,0,1-5.884,2.039,12.164,12.164,0,0,1-4.719-.874,8.494,8.494,0,0,1-3.612-2.854c-1.806,2.388-2.738,3.612-2.854,3.67V139.16l.35-.058a32.632,32.632,0,0,0,1.922,6.175,11.245,11.245,0,0,0,2.1,3.262c1.573,1.689,3.9,2.563,6.932,2.563a6.016,6.016,0,0,0,3.845-1.4,5,5,0,0,0,2.039-4.02,5.309,5.309,0,0,0-2.738-4.66,29.43,29.43,0,0,0-6.583-2.447,22.306,22.306,0,0,1-6.524-2.621,6.872,6.872,0,0,1-2.68-5.884,7.96,7.96,0,0,1,2.447-5.884,7.869,7.869,0,0,1,5.825-2.388,11.008,11.008,0,0,1,4.719.874C508.74,123.023,509.614,123.548,511.012,124.538Z" transform="translate(-341.084 -121.742)"/></g><g transform="translate(235.64 162.012)"><path class="e" d="M365.474,212.512l4.544-12.583,3.5,9.728c2.039-.932,4.02-1.922,5.884-2.971L373.571,190.9h-1.107L364.6,212.745C364.891,212.687,365.183,212.571,365.474,212.512Z" transform="translate(-354.114 -190.9)"/><path class="e" d="M386.949,236.7l-5.185-14.1c-1.282.7-2.68,1.34-4.194,2.039-.583.291-1.165.524-1.748.757l.7,1.922h-6.233c-.816.233-1.573.408-2.388.583h8.913l3.554,9.845.117.583c0,.641-.524,1.049-1.573,1.282a32.584,32.584,0,0,1-5.709.291v.583H393.59V239.9c-2.8,0-4.427-.116-5.01-.408A5.749,5.749,0,0,1,386.949,236.7Z" transform="translate(-355.492 -204.133)"/><path class="e" d="M354.756,240.09a10.7,10.7,0,0,1,.641-3.2l1.573-4.486c-.291.058-.524.117-.816.175l-.641,1.806a34.323,34.323,0,0,1-2.971,6.7,6.936,6.936,0,0,1-5.942,2.913v.583h14.1v-.583a8.916,8.916,0,0,1-4.369-.874A3.4,3.4,0,0,1,354.756,240.09Z" transform="translate(-346.6 -208.224)"/></g><g transform="translate(229.698 166.672)"><path class="f" d="M405.526,198.9l3.5,4.486,5.359-1.981-3.2,4.719,3.5,4.486-5.418-1.573-3.2,4.719-.175-5.709-5.476-1.515,5.359-1.981Z" transform="translate(-363.117 -198.9)"/><path class="f" d="M376.071,211.519a66.1,66.1,0,0,1-18.117,8.563,101.155,101.155,0,0,1-21.554,3.5c3.262.35,17.884,1.689,31.457-4.427,7.748-3.5,12.641-6.816,15.787-10.544-.291-.291-1.4-1.573-1.631-1.806A40.7,40.7,0,0,1,376.071,211.519Z" transform="translate(-336.4 -202.198)"/></g><g transform="translate(82.373 214.616)"><path class="g" d="M100.1,293.783c0,3.087-.583,5.359-1.806,6.816a6.423,6.423,0,0,1-5.185,2.155,9.29,9.29,0,0,1-6.466-2.33c-2.1-1.864-3.146-4.486-3.146-7.981a11.149,11.149,0,0,1,3.2-8.272,8.132,8.132,0,0,1,5.884-2.8,6.011,6.011,0,0,1,2.621.524,6.571,6.571,0,0,1,2.621,2.33L99.4,281.2h.175v9.321l-.233-.175a9.572,9.572,0,0,0-2.272-6.641,5.5,5.5,0,0,0-4.02-2.1,4.183,4.183,0,0,0-4.02,2.563c-.816,1.748-1.223,4.311-1.223,7.806a17.787,17.787,0,0,0,1.34,7.748,4.258,4.258,0,0,0,4.02,2.621,6.021,6.021,0,0,0,4.719-1.806c1.34-1.4,1.981-3.67,1.981-6.816h.233Z" transform="translate(-83.5 -281.2)"/><path class="g" d="M183.057,292.144a10.5,10.5,0,0,1-3.2,7.864,9.269,9.269,0,0,1-6.524,2.854,9.119,9.119,0,0,1-6.525-2.68,10.491,10.491,0,0,1-3.2-7.981,10.28,10.28,0,0,1,3.2-7.806,9.144,9.144,0,0,1,13.049-.117A10.265,10.265,0,0,1,183.057,292.144Zm-4.311.058a18.146,18.146,0,0,0-1.34-7.748,4.482,4.482,0,0,0-8.156,0c-.932,1.748-1.34,4.311-1.34,7.748a17.854,17.854,0,0,0,1.34,7.69,4.443,4.443,0,0,0,8.156,0A18.034,18.034,0,0,0,178.746,292.2Z" transform="translate(-116.938 -281.367)"/><path class="g" d="M260.925,302.655H248.4v-.35c.99,0,1.806-.058,2.5-.117a4.739,4.739,0,0,0,1.4-.233c.233-.117.408-.175.466-.291a4.234,4.234,0,0,0,.117-1.223V283.9a4.355,4.355,0,0,0-.117-1.165.817.817,0,0,0-.408-.233,13.83,13.83,0,0,0-3.961-.408V281.8h12.583a9.45,9.45,0,0,1,6.583,2.68,10.912,10.912,0,0,1,.408,15.379A9.483,9.483,0,0,1,260.925,302.655Zm.058-.291a4.743,4.743,0,0,0,4.486-2.5c.932-1.689,1.4-4.136,1.4-7.457a16.239,16.239,0,0,0-1.4-7.4,4.777,4.777,0,0,0-4.486-2.854c-1.049,0-1.806,0-2.388.058a10.355,10.355,0,0,0-1.165.175.987.987,0,0,0-.466.349,4.565,4.565,0,0,0-.117,1.223V300.5a4.564,4.564,0,0,0,.117,1.223.7.7,0,0,0,.408.408,6.39,6.39,0,0,0,1.4.117C259.527,302.306,260.226,302.364,260.983,302.364Z" transform="translate(-152.338 -281.45)"/><path class="g" d="M346.53,283.981v16.6a4.562,4.562,0,0,0,.117,1.223.816.816,0,0,0,.408.233,13.5,13.5,0,0,0,3.845.35v.35H338.2v-.35c.932,0,1.748-.058,2.388-.117a4.739,4.739,0,0,0,1.4-.233,1.065,1.065,0,0,0,.466-.349,3.524,3.524,0,0,0,.117-1.107v-16.6a3.524,3.524,0,0,0-.117-1.107.816.816,0,0,0-.408-.233,13.5,13.5,0,0,0-3.845-.35V282h12.7v.291c-.932,0-1.748.058-2.388.117a10.794,10.794,0,0,0-1.456.233l-.35.117A2.323,2.323,0,0,0,346.53,283.981Z" transform="translate(-189.826 -281.534)"/><path class="g" d="M429.308,296.289v-8.971c0-1.981-.35-3.32-.99-4.02-.641-.757-1.864-1.107-3.612-1.107V281.9h9.146v.291a3.957,3.957,0,0,0-3.2,1.107,6.833,6.833,0,0,0-.874,4.02v15.5h-.757L416.2,285.8l-.35-.408c-.058,0-.117.175-.117.583v10.544c0,2.388.291,3.961.99,4.719.641.757,1.864,1.165,3.612,1.165v.35h-9.379v-.35c1.689,0,2.8-.35,3.437-1.049s.932-2.039.932-4.078v-11.01a4.042,4.042,0,0,0-.99-2.854,4.5,4.5,0,0,0-3.437-1.223V281.9h6.7l11.127,14.505q.437.524.524.524C429.308,296.988,429.308,296.755,429.308,296.289Z" transform="translate(-220.175 -281.492)"/><path class="g" d="M516.993,302.53h-.233a3.28,3.28,0,0,0-.408-1.864,1.3,1.3,0,0,0-1.049-.641,2.891,2.891,0,0,0-1.864.641c-.233.233-.466.408-.7.641a7.415,7.415,0,0,1-2.039,1.223,7.26,7.26,0,0,1-2.214.291,8.643,8.643,0,0,1-6.117-2.272c-1.981-1.806-2.971-4.486-2.971-7.923a11.42,11.42,0,0,1,3.262-8.33,8.2,8.2,0,0,1,5.767-2.8,7.162,7.162,0,0,1,3.2.583,8.359,8.359,0,0,1,3.029,2.8l1.806-3.379v9.088h-.291a12.9,12.9,0,0,0-2.738-6.641,5.842,5.842,0,0,0-4.544-2.155,4.365,4.365,0,0,0-3.9,2.738,17.284,17.284,0,0,0-1.456,7.748,17.743,17.743,0,0,0,1.34,7.631c.874,1.806,2.1,2.68,3.67,2.68a4.753,4.753,0,0,0,3.379-1.165,4.447,4.447,0,0,0,1.223-3.379v-3.9a3.826,3.826,0,0,0-.117-1.107.616.616,0,0,0-.408-.35,7.356,7.356,0,0,0-1.282-.233c-.641-.058-1.223-.117-1.689-.117v-.291h11.127v.291c-.466,0-1.049.058-1.748.117s-1.165.175-1.456.175c-.233.058-.408.117-.466.233a3,3,0,0,0-.175,1.223v8.447Z" transform="translate(-257.12 -281.325)"/></g><rect class="e" width="262.145" height="0.99" transform="translate(80.8 207.159)"/></g><text class="h" transform="translate(1010.034 284)"><tspan x="0" y="0">Powered By</tspan></text><rect class="i" width="111.145" height="0.99" transform="translate(946.601 269) rotate(90)"/></g></svg>