<svg xmlns="http://www.w3.org/2000/svg" xmlns:xlink="http://www.w3.org/1999/xlink" width="1775.515" height="723" viewBox="0 0 1775.515 723">
  <defs>
    <filter id="Path_1" x="0" y="300.37" width="166.511" height="134.046" filterUnits="userSpaceOnUse">
      <feOffset dy="3" input="SourceAlpha"/>
      <feGaussianBlur stdDeviation="3" result="blur"/>
      <feFlood flood-opacity="0.161"/>
      <feComposite operator="in" in2="blur"/>
      <feComposite in="SourceGraphic"/>
    </filter>
    <clipPath id="clip-path">
      <rect width="1487" height="55" fill="none"/>
    </clipPath>
    <filter id="Path_6" x="163.515" y="0" width="224" height="234" filterUnits="userSpaceOnUse">
      <feOffset dy="1" input="SourceAlpha"/>
      <feGaussianBlur stdDeviation="1.5" result="blur-2"/>
      <feFlood flood-opacity="0.161"/>
      <feComposite operator="in" in2="blur-2"/>
      <feComposite in="SourceGraphic"/>
    </filter>
    <filter id="Path_14" x="314.515" y="485" width="224" height="234" filterUnits="userSpaceOnUse">
      <feOffset dy="1" input="SourceAlpha"/>
      <feGaussianBlur stdDeviation="1.5" result="blur-3"/>
      <feFlood flood-opacity="0.161"/>
      <feComposite operator="in" in2="blur-3"/>
      <feComposite in="SourceGraphic"/>
    </filter>
    <filter id="Path_15" x="630.515" y="485" width="224" height="234" filterUnits="userSpaceOnUse">
      <feOffset dy="1" input="SourceAlpha"/>
      <feGaussianBlur stdDeviation="1.5" result="blur-4"/>
      <feFlood flood-opacity="0.161"/>
      <feComposite operator="in" in2="blur-4"/>
      <feComposite in="SourceGraphic"/>
    </filter>
    <filter id="Path_16" x="945.515" y="489" width="224" height="234" filterUnits="userSpaceOnUse">
      <feOffset dy="1" input="SourceAlpha"/>
      <feGaussianBlur stdDeviation="1.5" result="blur-5"/>
      <feFlood flood-opacity="0.161"/>
      <feComposite operator="in" in2="blur-5"/>
      <feComposite in="SourceGraphic"/>
    </filter>
    <filter id="Path_17" x="1242.515" y="484" width="224" height="234" filterUnits="userSpaceOnUse">
      <feOffset dy="1" input="SourceAlpha"/>
      <feGaussianBlur stdDeviation="1.5" result="blur-6"/>
      <feFlood flood-opacity="0.161"/>
      <feComposite operator="in" in2="blur-6"/>
      <feComposite in="SourceGraphic"/>
    </filter>
    <filter id="Path_18" x="1551.515" y="485" width="224" height="234" filterUnits="userSpaceOnUse">
      <feOffset dy="1" input="SourceAlpha"/>
      <feGaussianBlur stdDeviation="1.5" result="blur-7"/>
      <feFlood flood-opacity="0.161"/>
      <feComposite operator="in" in2="blur-7"/>
      <feComposite in="SourceGraphic"/>
    </filter>
    <filter id="Path_10" x="475.515" y="0" width="224" height="234" filterUnits="userSpaceOnUse">
      <feOffset dy="1" input="SourceAlpha"/>
      <feGaussianBlur stdDeviation="1.5" result="blur-8"/>
      <feFlood flood-opacity="0.161"/>
      <feComposite operator="in" in2="blur-8"/>
      <feComposite in="SourceGraphic"/>
    </filter>
    <filter id="Path_11" x="775.515" y="0" width="224" height="234" filterUnits="userSpaceOnUse">
      <feOffset dy="1" input="SourceAlpha"/>
      <feGaussianBlur stdDeviation="1.5" result="blur-9"/>
      <feFlood flood-opacity="0.161"/>
      <feComposite operator="in" in2="blur-9"/>
      <feComposite in="SourceGraphic"/>
    </filter>
    <filter id="Path_12" x="1087.515" y="0" width="224" height="234" filterUnits="userSpaceOnUse">
      <feOffset dy="1" input="SourceAlpha"/>
      <feGaussianBlur stdDeviation="1.5" result="blur-10"/>
      <feFlood flood-opacity="0.161"/>
      <feComposite operator="in" in2="blur-10"/>
      <feComposite in="SourceGraphic"/>
    </filter>
    <filter id="Path_13" x="1399.515" y="0" width="224" height="234" filterUnits="userSpaceOnUse">
      <feOffset dy="1" input="SourceAlpha"/>
      <feGaussianBlur stdDeviation="1.5" result="blur-11"/>
      <feFlood flood-opacity="0.161"/>
      <feComposite operator="in" in2="blur-11"/>
      <feComposite in="SourceGraphic"/>
    </filter>
  </defs>
  <g id="Group_3010" data-name="Group 3010" transform="translate(-80.985 -3717.5)">
    <path id="Path_2" data-name="Path 2" d="M13,.268H1526" transform="translate(225.5 4074.5)" fill="none" stroke="#010a20" stroke-width="3"/>
    <g transform="matrix(1, 0, 0, 1, 80.99, 3717.5)" filter="url(#Path_1)">
      <path id="Path_1-2" data-name="Path 1" d="M74.794,35.214l73.716,22.562V151.26H0V57.776Z" transform="translate(157.51 457.63) rotate(-180)" fill="#010a20"/>
    </g>
    <g id="Repeat_Grid_2" data-name="Repeat Grid 2" transform="translate(332 4047)" clip-path="url(#clip-path)">
      <g transform="translate(-361 -1340)">
        <g id="Ellipse_3" data-name="Ellipse 3" transform="translate(361 1340)" fill="#010a20" stroke="#010a20" stroke-width="1">
          <circle cx="25" cy="25" r="25" stroke="none"/>
          <circle cx="25" cy="25" r="24.5" fill="none"/>
        </g>
        <text id="_1" data-name="1" transform="translate(381 1372)" fill="#fff" font-size="18" font-family="Montserrat-Bold, Montserrat" font-weight="700"><tspan x="0" y="0">1</tspan></text>
      </g>
      <g transform="translate(-207 -1340)">
        <g id="Ellipse_3-2" data-name="Ellipse 3" transform="translate(361 1340)" fill="#010a20" stroke="#010a20" stroke-width="1">
          <circle cx="25" cy="25" r="25" stroke="none"/>
          <circle cx="25" cy="25" r="24.5" fill="none"/>
        </g>
        <text id="_2" data-name="2" transform="translate(381 1372)" fill="#fff" font-size="18" font-family="Montserrat-Bold, Montserrat" font-weight="700"><tspan x="0" y="0">2</tspan></text>
      </g>
      <g transform="translate(-53 -1340)">
        <g id="Ellipse_3-3" data-name="Ellipse 3" transform="translate(361 1340)" fill="#010a20" stroke="#010a20" stroke-width="1">
          <circle cx="25" cy="25" r="25" stroke="none"/>
          <circle cx="25" cy="25" r="24.5" fill="none"/>
        </g>
        <text id="_3" data-name="3" transform="translate(381 1372)" fill="#fff" font-size="18" font-family="Montserrat-Bold, Montserrat" font-weight="700"><tspan x="0" y="0">3</tspan></text>
      </g>
      <g transform="translate(101 -1340)">
        <g id="Ellipse_3-4" data-name="Ellipse 3" transform="translate(361 1340)" fill="#010a20" stroke="#010a20" stroke-width="1">
          <circle cx="25" cy="25" r="25" stroke="none"/>
          <circle cx="25" cy="25" r="24.5" fill="none"/>
        </g>
        <text id="_4" data-name="4" transform="translate(381 1372)" fill="#fff" font-size="18" font-family="Montserrat-Bold, Montserrat" font-weight="700"><tspan x="0" y="0">4</tspan></text>
      </g>
      <g transform="translate(255 -1340)">
        <g id="Ellipse_3-5" data-name="Ellipse 3" transform="translate(361 1340)" fill="#010a20" stroke="#010a20" stroke-width="1">
          <circle cx="25" cy="25" r="25" stroke="none"/>
          <circle cx="25" cy="25" r="24.5" fill="none"/>
        </g>
        <text id="_5" data-name="5" transform="translate(381 1372)" fill="#fff" font-size="18" font-family="Montserrat-Bold, Montserrat" font-weight="700"><tspan x="0" y="0">5</tspan></text>
      </g>
      <g transform="translate(409 -1340)">
        <g id="Ellipse_3-6" data-name="Ellipse 3" transform="translate(361 1340)" fill="#010a20" stroke="#010a20" stroke-width="1">
          <circle cx="25" cy="25" r="25" stroke="none"/>
          <circle cx="25" cy="25" r="24.5" fill="none"/>
        </g>
        <text id="_6" data-name="6" transform="translate(381 1372)" fill="#fff" font-size="18" font-family="Montserrat-Bold, Montserrat" font-weight="700"><tspan x="0" y="0">6</tspan></text>
      </g>
      <g transform="translate(563 -1340)">
        <g id="Ellipse_3-7" data-name="Ellipse 3" transform="translate(361 1340)" fill="#010a20" stroke="#010a20" stroke-width="1">
          <circle cx="25" cy="25" r="25" stroke="none"/>
          <circle cx="25" cy="25" r="24.5" fill="none"/>
        </g>
        <text id="_7" data-name="7" transform="translate(381 1372)" fill="#fff" font-size="18" font-family="Montserrat-Bold, Montserrat" font-weight="700"><tspan x="0" y="0">7</tspan></text>
      </g>
      <g transform="translate(717 -1340)">
        <g id="Ellipse_3-8" data-name="Ellipse 3" transform="translate(361 1340)" fill="#010a20" stroke="#010a20" stroke-width="1">
          <circle cx="25" cy="25" r="25" stroke="none"/>
          <circle cx="25" cy="25" r="24.5" fill="none"/>
        </g>
        <text id="_8" data-name="8" transform="translate(381 1372)" fill="#fff" font-size="18" font-family="Montserrat-Bold, Montserrat" font-weight="700"><tspan x="0" y="0">8</tspan></text>
      </g>
      <g transform="translate(871 -1340)">
        <g id="Ellipse_3-9" data-name="Ellipse 3" transform="translate(361 1340)" fill="#010a20" stroke="#010a20" stroke-width="1">
          <circle cx="25" cy="25" r="25" stroke="none"/>
          <circle cx="25" cy="25" r="24.5" fill="none"/>
        </g>
        <text id="_9" data-name="9" transform="translate(381 1372)" fill="#fff" font-size="18" font-family="Montserrat-Bold, Montserrat" font-weight="700"><tspan x="0" y="0">9</tspan></text>
      </g>
      <g transform="translate(1025 -1340)">
        <g id="Ellipse_3-10" data-name="Ellipse 3" transform="translate(361 1340)" fill="#010a20" stroke="#010a20" stroke-width="1">
          <circle cx="25" cy="25" r="25" stroke="none"/>
          <circle cx="25" cy="25" r="24.5" fill="none"/>
        </g>
        <text id="_10" data-name="10" transform="translate(381 1372)" fill="#fff" font-size="18" font-family="Montserrat-Bold, Montserrat" font-weight="700"><tspan x="0" y="0">10</tspan></text>
      </g>
    </g>
    <g id="Group_3004" data-name="Group 3004">
      <line id="Line_1" data-name="Line 1" y1="116" transform="translate(356.5 3931.5)" fill="none" stroke="#010a20" stroke-linecap="round" stroke-width="3" stroke-dasharray="2 8"/>
      <g transform="matrix(1, 0, 0, 1, 80.99, 3717.5)" filter="url(#Path_6)">
        <path id="Path_6-2" data-name="Path 6" d="M10,0H205a10,10,0,0,1,10,10V215a10,10,0,0,1-10,10H10A10,10,0,0,1,0,215V10A10,10,0,0,1,10,0Z" transform="translate(168.01 3.5)" fill="#fff"/>
      </g>
      <text id="Lakshmi_Narain_Collage_of_Technology" data-name="Lakshmi Narain Collage of
Technology" transform="translate(290 3822)" fill="#060606" font-size="14" font-family="Lato-Medium, Lato" font-weight="500"><tspan x="0" y="0">Lakshmi Narain Collage of</tspan><tspan x="0" y="17">Technology</tspan></text>
      <text id="Bhopal" transform="translate(290 3883)" fill="#060606" font-size="14" font-family="Lato-Medium, Lato" font-weight="500"><tspan x="0" y="0">Bhopal</tspan></text>
      <path id="ic_place_24px" d="M8.608,2A3.606,3.606,0,0,0,5,5.608c0,2.706,3.608,6.7,3.608,6.7s3.608-4,3.608-6.7A3.606,3.606,0,0,0,8.608,2Zm0,4.9A1.289,1.289,0,1,1,9.9,5.608,1.289,1.289,0,0,1,8.608,6.9Z" transform="translate(261.177 3870.92)" fill="#606060"/>
      <g id="office-worker-outline" transform="translate(264.433 3904.22)">
        <g id="Group_1" data-name="Group 1" transform="translate(0 0)">
          <path id="Path_3" data-name="Path 3" d="M17.341,5.838c.359-.077.691-.374.745-1.032.045-.539-.094-.817-.3-.958.567-2.31-1-2.762-1-2.762A2.344,2.344,0,0,0,13.344.495a4.072,4.072,0,0,0-1.009.865,3.6,3.6,0,0,0-.77,2.412c-.278.106-.5.375-.443,1.034.057.689.416.982.794,1.042a3.244,3.244,0,0,0,2.71,2.267A3.249,3.249,0,0,0,17.341,5.838Zm-2.714,1.7c-1.379,0-2.489-1.872-2.489-3.422,0-.212.007-.409.02-.592A4.729,4.729,0,0,0,16.016,2.1a4.53,4.53,0,0,1,1.1,1.964c0,.017,0,.033,0,.05C17.115,5.663,16.006,7.535,14.627,7.535Z" transform="translate(-9.261 0)" fill="#606060"/>
          <path id="Path_4" data-name="Path 4" d="M9.445,28.391l.16-.661a.385.385,0,0,1,.111-.192L9.667,27.5l-1.426-1.18-.868.2a3.15,3.15,0,0,0-2.5,3.01V31.4a.694.694,0,0,0,.719.661H9.261l.56-3.193A.39.39,0,0,1,9.445,28.391Z" transform="translate(-4.869 -18.513)" fill="#606060"/>
          <path id="Path_5" data-name="Path 5" d="M26.652,26.525l-.856-.2L24.372,27.5l-.047.036a.386.386,0,0,1,.112.192l.159.661a.39.39,0,0,1-.376.482l.56,3.193h3.673a.667.667,0,0,0,.689-.661V29.535A3.136,3.136,0,0,0,26.652,26.525Z" transform="translate(-18.478 -18.513)" fill="#606060"/>
        </g>
      </g>
      <g id="college-graduation" transform="translate(263.599 3812.584)">
        <g id="Layer_5_59_" transform="translate(0 0)">
          <g id="Group_2" data-name="Group 2">
            <path id="Path_7" data-name="Path 7" d="M53.308,204.68a1.7,1.7,0,0,1-1.68,0l-3.8-2.332s-.343-.21-.343.266v2.329c0,1.227,2.232,2.55,4.986,2.55s4.986-1.323,4.986-2.55v-2.46c0-.383-.244-.2-.244-.2Z" transform="translate(-45.924 -196.809)" fill="#606060"/>
            <path id="Path_8" data-name="Path 8" d="M12.869,40.331a.352.352,0,0,0,0-.652l-5.794-2.9a1.117,1.117,0,0,0-1.063,0l-5.794,2.9a.352.352,0,0,0,0,.652l5.794,3.553a1.117,1.117,0,0,0,1.063,0" transform="translate(0 -36.648)" fill="#606060"/>
            <path id="Path_9" data-name="Path 9" d="M356.776,189.737v-3.924s0-.186-.108-.124a3.206,3.206,0,0,0-.382.237.329.329,0,0,0-.068.249v3.563a.1.1,0,0,1-.064.087.678.678,0,1,0,.684,0A.1.1,0,0,1,356.776,189.737Z" transform="translate(-344.147 -180.787)" fill="#606060"/>
          </g>
        </g>
      </g>
      <text id="Mr._Anuj_Garg" data-name="Mr. Anuj Garg" transform="translate(290 3917)" fill="#060606" font-size="14" font-family="Lato-Medium, Lato" font-weight="500"><tspan x="0" y="0">Mr. Anuj Garg</tspan></text>
      <path id="Rectangle_4" data-name="Rectangle 4" d="M11,0H204a11,11,0,0,1,11,11V70a0,0,0,0,1,0,0H0a0,0,0,0,1,0,0V11A11,11,0,0,1,11,0Z" transform="translate(249 3721)" fill="#f5f5f5"/>
      <text id="_756" data-name="756" transform="translate(332 3758)" fill="#060606" font-size="28" font-family="Lato-Bold, Lato" font-weight="700"><tspan x="0" y="0">756</tspan></text>
      <text id="Participations" transform="translate(317 3779)" fill="#060606" font-size="12" font-family="Lato-Regular, Lato"><tspan x="0" y="0">Participations</tspan></text>
    </g>
    <g id="Group_3005" data-name="Group 3005">
      <line id="Line_6" data-name="Line 6" y1="116" transform="translate(510.5 4088.5)" fill="none" stroke="#010a20" stroke-linecap="round" stroke-width="3" stroke-dasharray="2 8"/>
      <g transform="matrix(1, 0, 0, 1, 80.99, 3717.5)" filter="url(#Path_14)">
        <path id="Path_14-2" data-name="Path 14" d="M10,0H205a10,10,0,0,1,10,10V215a10,10,0,0,1-10,10H10A10,10,0,0,1,0,215V10A10,10,0,0,1,10,0Z" transform="translate(319.01 488.5)" fill="#fff"/>
      </g>
      <text id="Chandigarh_Group_of_Colleges_-College_of_Engineering" data-name="Chandigarh Group of 
Colleges -College of
Engineering" transform="translate(441 4307)" fill="#060606" font-size="14" font-family="Lato-Medium, Lato" font-weight="500"><tspan x="0" y="0">Chandigarh Group of </tspan><tspan x="0" y="17">Colleges -College of</tspan><tspan x="0" y="34">Engineering</tspan></text>
      <text id="Mohali" transform="translate(441 4366)" fill="#060606" font-size="14" font-family="Lato-Medium, Lato" font-weight="500"><tspan x="0" y="0">Mohali</tspan></text>
      <path id="ic_place_24px-2" data-name="ic_place_24px" d="M8.608,2A3.606,3.606,0,0,0,5,5.608c0,2.706,3.608,6.7,3.608,6.7s3.608-4,3.608-6.7A3.606,3.606,0,0,0,8.608,2Zm0,4.9A1.289,1.289,0,1,1,9.9,5.608,1.289,1.289,0,0,1,8.608,6.9Z" transform="translate(412.177 4355.92)" fill="#606060"/>
      <g id="office-worker-outline-2" data-name="office-worker-outline" transform="translate(415.433 4389.22)">
        <g id="Group_1-2" data-name="Group 1" transform="translate(0 0)">
          <path id="Path_3-2" data-name="Path 3" d="M17.341,5.838c.359-.077.691-.374.745-1.032.045-.539-.094-.817-.3-.958.567-2.31-1-2.762-1-2.762A2.344,2.344,0,0,0,13.344.495a4.072,4.072,0,0,0-1.009.865,3.6,3.6,0,0,0-.77,2.412c-.278.106-.5.375-.443,1.034.057.689.416.982.794,1.042a3.244,3.244,0,0,0,2.71,2.267A3.249,3.249,0,0,0,17.341,5.838Zm-2.714,1.7c-1.379,0-2.489-1.872-2.489-3.422,0-.212.007-.409.02-.592A4.729,4.729,0,0,0,16.016,2.1a4.53,4.53,0,0,1,1.1,1.964c0,.017,0,.033,0,.05C17.115,5.663,16.006,7.535,14.627,7.535Z" transform="translate(-9.261 0)" fill="#606060"/>
          <path id="Path_4-2" data-name="Path 4" d="M9.445,28.391l.16-.661a.385.385,0,0,1,.111-.192L9.667,27.5l-1.426-1.18-.868.2a3.15,3.15,0,0,0-2.5,3.01V31.4a.694.694,0,0,0,.719.661H9.261l.56-3.193A.39.39,0,0,1,9.445,28.391Z" transform="translate(-4.869 -18.513)" fill="#606060"/>
          <path id="Path_5-2" data-name="Path 5" d="M26.652,26.525l-.856-.2L24.372,27.5l-.047.036a.386.386,0,0,1,.112.192l.159.661a.39.39,0,0,1-.376.482l.56,3.193h3.673a.667.667,0,0,0,.689-.661V29.535A3.136,3.136,0,0,0,26.652,26.525Z" transform="translate(-18.478 -18.513)" fill="#606060"/>
        </g>
      </g>
      <g id="college-graduation-2" data-name="college-graduation" transform="translate(414.599 4297.584)">
        <g id="Layer_5_59_2" data-name="Layer_5_59_" transform="translate(0 0)">
          <g id="Group_2-2" data-name="Group 2">
            <path id="Path_7-2" data-name="Path 7" d="M53.308,204.68a1.7,1.7,0,0,1-1.68,0l-3.8-2.332s-.343-.21-.343.266v2.329c0,1.227,2.232,2.55,4.986,2.55s4.986-1.323,4.986-2.55v-2.46c0-.383-.244-.2-.244-.2Z" transform="translate(-45.924 -196.809)" fill="#606060"/>
            <path id="Path_8-2" data-name="Path 8" d="M12.869,40.331a.352.352,0,0,0,0-.652l-5.794-2.9a1.117,1.117,0,0,0-1.063,0l-5.794,2.9a.352.352,0,0,0,0,.652l5.794,3.553a1.117,1.117,0,0,0,1.063,0" transform="translate(0 -36.648)" fill="#606060"/>
            <path id="Path_9-2" data-name="Path 9" d="M356.776,189.737v-3.924s0-.186-.108-.124a3.206,3.206,0,0,0-.382.237.329.329,0,0,0-.068.249v3.563a.1.1,0,0,1-.064.087.678.678,0,1,0,.684,0A.1.1,0,0,1,356.776,189.737Z" transform="translate(-344.147 -180.787)" fill="#606060"/>
          </g>
        </g>
      </g>
      <text id="Mr._Navneet_Singh" data-name="Mr. Navneet Singh" transform="translate(441 4400)" fill="#060606" font-size="14" font-family="Lato-Medium, Lato" font-weight="500"><tspan x="0" y="0">Mr. Navneet Singh</tspan></text>
      <path id="Rectangle_9" data-name="Rectangle 9" d="M11,0H204a11,11,0,0,1,11,11V70a0,0,0,0,1,0,0H0a0,0,0,0,1,0,0V11A11,11,0,0,1,11,0Z" transform="translate(400 4205)" fill="#f5f5f5"/>
      <text id="_681" data-name="681" transform="translate(483 4247)" fill="#060606" font-size="28" font-family="Lato-Bold, Lato" font-weight="700"><tspan x="0" y="0">681</tspan></text>
      <text id="Participations-2" data-name="Participations" transform="translate(475 4265)" fill="#060606" font-size="11" font-family="Lato-Light, Lato" font-weight="300"><tspan x="0" y="0">Participations</tspan></text>
    </g>
    <g id="Group_3006" data-name="Group 3006">
      <line id="Line_7" data-name="Line 7" y1="116" transform="translate(820.5 4088.5)" fill="none" stroke="#010a20" stroke-linecap="round" stroke-width="3" stroke-dasharray="2 8"/>
      <g transform="matrix(1, 0, 0, 1, 80.99, 3717.5)" filter="url(#Path_15)">
        <path id="Path_15-2" data-name="Path 15" d="M10,0H205a10,10,0,0,1,10,10V215a10,10,0,0,1-10,10H10A10,10,0,0,1,0,215V10A10,10,0,0,1,10,0Z" transform="translate(635.01 488.5)" fill="#fff"/>
      </g>
      <text id="Gayatri_Vidya_Parishad_College_of_Engineering" data-name="Gayatri Vidya Parishad 
College of Engineering" transform="translate(757 4307)" fill="#060606" font-size="14" font-family="Lato-Medium, Lato" font-weight="500"><tspan x="0" y="0">Gayatri Vidya Parishad </tspan><tspan x="0" y="17">College of Engineering</tspan></text>
      <text id="Visakhapatnam" transform="translate(757 4366)" fill="#060606" font-size="14" font-family="Lato-Medium, Lato" font-weight="500"><tspan x="0" y="0">Visakhapatnam</tspan></text>
      <path id="ic_place_24px-3" data-name="ic_place_24px" d="M8.608,2A3.606,3.606,0,0,0,5,5.608c0,2.706,3.608,6.7,3.608,6.7s3.608-4,3.608-6.7A3.606,3.606,0,0,0,8.608,2Zm0,4.9A1.289,1.289,0,1,1,9.9,5.608,1.289,1.289,0,0,1,8.608,6.9Z" transform="translate(727.177 4355.92)" fill="#606060"/>
      <g id="office-worker-outline-3" data-name="office-worker-outline" transform="translate(730.433 4389.22)">
        <g id="Group_1-3" data-name="Group 1" transform="translate(0 0)">
          <path id="Path_3-3" data-name="Path 3" d="M17.341,5.838c.359-.077.691-.374.745-1.032.045-.539-.094-.817-.3-.958.567-2.31-1-2.762-1-2.762A2.344,2.344,0,0,0,13.344.495a4.072,4.072,0,0,0-1.009.865,3.6,3.6,0,0,0-.77,2.412c-.278.106-.5.375-.443,1.034.057.689.416.982.794,1.042a3.244,3.244,0,0,0,2.71,2.267A3.249,3.249,0,0,0,17.341,5.838Zm-2.714,1.7c-1.379,0-2.489-1.872-2.489-3.422,0-.212.007-.409.02-.592A4.729,4.729,0,0,0,16.016,2.1a4.53,4.53,0,0,1,1.1,1.964c0,.017,0,.033,0,.05C17.115,5.663,16.006,7.535,14.627,7.535Z" transform="translate(-9.261 0)" fill="#606060"/>
          <path id="Path_4-3" data-name="Path 4" d="M9.445,28.391l.16-.661a.385.385,0,0,1,.111-.192L9.667,27.5l-1.426-1.18-.868.2a3.15,3.15,0,0,0-2.5,3.01V31.4a.694.694,0,0,0,.719.661H9.261l.56-3.193A.39.39,0,0,1,9.445,28.391Z" transform="translate(-4.869 -18.513)" fill="#606060"/>
          <path id="Path_5-3" data-name="Path 5" d="M26.652,26.525l-.856-.2L24.372,27.5l-.047.036a.386.386,0,0,1,.112.192l.159.661a.39.39,0,0,1-.376.482l.56,3.193h3.673a.667.667,0,0,0,.689-.661V29.535A3.136,3.136,0,0,0,26.652,26.525Z" transform="translate(-18.478 -18.513)" fill="#606060"/>
        </g>
      </g>
      <g id="college-graduation-3" data-name="college-graduation" transform="translate(729.599 4297.584)">
        <g id="Layer_5_59_3" data-name="Layer_5_59_" transform="translate(0 0)">
          <g id="Group_2-3" data-name="Group 2">
            <path id="Path_7-3" data-name="Path 7" d="M53.308,204.68a1.7,1.7,0,0,1-1.68,0l-3.8-2.332s-.343-.21-.343.266v2.329c0,1.227,2.232,2.55,4.986,2.55s4.986-1.323,4.986-2.55v-2.46c0-.383-.244-.2-.244-.2Z" transform="translate(-45.924 -196.809)" fill="#606060"/>
            <path id="Path_8-3" data-name="Path 8" d="M12.869,40.331a.352.352,0,0,0,0-.652l-5.794-2.9a1.117,1.117,0,0,0-1.063,0l-5.794,2.9a.352.352,0,0,0,0,.652l5.794,3.553a1.117,1.117,0,0,0,1.063,0" transform="translate(0 -36.648)" fill="#606060"/>
            <path id="Path_9-3" data-name="Path 9" d="M356.776,189.737v-3.924s0-.186-.108-.124a3.206,3.206,0,0,0-.382.237.329.329,0,0,0-.068.249v3.563a.1.1,0,0,1-.064.087.678.678,0,1,0,.684,0A.1.1,0,0,1,356.776,189.737Z" transform="translate(-344.147 -180.787)" fill="#606060"/>
          </g>
        </g>
      </g>
      <text id="Dr._Venkata_Rao" data-name="Dr. Venkata Rao" transform="translate(757 4400)" fill="#060606" font-size="14" font-family="Lato-Medium, Lato" font-weight="500"><tspan x="0" y="0">Dr. Venkata Rao</tspan></text>
      <path id="Rectangle_10" data-name="Rectangle 10" d="M11,0H204a11,11,0,0,1,11,11V70a0,0,0,0,1,0,0H0a0,0,0,0,1,0,0V11A11,11,0,0,1,11,0Z" transform="translate(716 4205)" fill="#f5f5f5"/>
      <text id="_508" data-name="508" transform="translate(799 4247)" fill="#060606" font-size="28" font-family="Lato-Bold, Lato" font-weight="700"><tspan x="0" y="0">508</tspan></text>
      <text id="Participations-3" data-name="Participations" transform="translate(791 4265)" fill="#060606" font-size="11" font-family="Lato-Light, Lato" font-weight="300"><tspan x="0" y="0">Participations</tspan></text>
    </g>
    <g id="Group_3007" data-name="Group 3007">
      <line id="Line_8" data-name="Line 8" y1="116" transform="translate(1129.5 4092.5)" fill="none" stroke="#010a20" stroke-linecap="round" stroke-width="3" stroke-dasharray="2 8"/>
      <g transform="matrix(1, 0, 0, 1, 80.99, 3717.5)" filter="url(#Path_16)">
        <path id="Path_16-2" data-name="Path 16" d="M10,0H205a10,10,0,0,1,10,10V215a10,10,0,0,1-10,10H10A10,10,0,0,1,0,215V10A10,10,0,0,1,10,0Z" transform="translate(950.01 492.5)" fill="#fff"/>
      </g>
      <text id="G_Narayanamma_Institute_of_Technology_Sciences" data-name="G Narayanamma Institute
of Technology &amp; Sciences" transform="translate(1072 4311)" fill="#060606" font-size="14" font-family="Lato-Medium, Lato" font-weight="500"><tspan x="0" y="0">G Narayanamma Institute</tspan><tspan x="0" y="17">of Technology &amp; Sciences</tspan></text>
      <text id="Hyderabad" transform="translate(1072 4366)" fill="#060606" font-size="14" font-family="Lato-Medium, Lato" font-weight="500"><tspan x="0" y="0">Hyderabad</tspan></text>
      <path id="ic_place_24px-4" data-name="ic_place_24px" d="M8.608,2A3.606,3.606,0,0,0,5,5.608c0,2.706,3.608,6.7,3.608,6.7s3.608-4,3.608-6.7A3.606,3.606,0,0,0,8.608,2Zm0,4.9A1.289,1.289,0,1,1,9.9,5.608,1.289,1.289,0,0,1,8.608,6.9Z" transform="translate(1045.177 4355.92)" fill="#606060"/>
      <g id="office-worker-outline-4" data-name="office-worker-outline" transform="translate(1048.433 4389.22)">
        <g id="Group_1-4" data-name="Group 1" transform="translate(0 0)">
          <path id="Path_3-4" data-name="Path 3" d="M17.341,5.838c.359-.077.691-.374.745-1.032.045-.539-.094-.817-.3-.958.567-2.31-1-2.762-1-2.762A2.344,2.344,0,0,0,13.344.495a4.072,4.072,0,0,0-1.009.865,3.6,3.6,0,0,0-.77,2.412c-.278.106-.5.375-.443,1.034.057.689.416.982.794,1.042a3.244,3.244,0,0,0,2.71,2.267A3.249,3.249,0,0,0,17.341,5.838Zm-2.714,1.7c-1.379,0-2.489-1.872-2.489-3.422,0-.212.007-.409.02-.592A4.729,4.729,0,0,0,16.016,2.1a4.53,4.53,0,0,1,1.1,1.964c0,.017,0,.033,0,.05C17.115,5.663,16.006,7.535,14.627,7.535Z" transform="translate(-9.261 0)" fill="#606060"/>
          <path id="Path_4-4" data-name="Path 4" d="M9.445,28.391l.16-.661a.385.385,0,0,1,.111-.192L9.667,27.5l-1.426-1.18-.868.2a3.15,3.15,0,0,0-2.5,3.01V31.4a.694.694,0,0,0,.719.661H9.261l.56-3.193A.39.39,0,0,1,9.445,28.391Z" transform="translate(-4.869 -18.513)" fill="#606060"/>
          <path id="Path_5-4" data-name="Path 5" d="M26.652,26.525l-.856-.2L24.372,27.5l-.047.036a.386.386,0,0,1,.112.192l.159.661a.39.39,0,0,1-.376.482l.56,3.193h3.673a.667.667,0,0,0,.689-.661V29.535A3.136,3.136,0,0,0,26.652,26.525Z" transform="translate(-18.478 -18.513)" fill="#606060"/>
        </g>
      </g>
      <g id="college-graduation-4" data-name="college-graduation" transform="translate(1047.599 4297.584)">
        <g id="Layer_5_59_4" data-name="Layer_5_59_" transform="translate(0 0)">
          <g id="Group_2-4" data-name="Group 2">
            <path id="Path_7-4" data-name="Path 7" d="M53.308,204.68a1.7,1.7,0,0,1-1.68,0l-3.8-2.332s-.343-.21-.343.266v2.329c0,1.227,2.232,2.55,4.986,2.55s4.986-1.323,4.986-2.55v-2.46c0-.383-.244-.2-.244-.2Z" transform="translate(-45.924 -196.809)" fill="#606060"/>
            <path id="Path_8-4" data-name="Path 8" d="M12.869,40.331a.352.352,0,0,0,0-.652l-5.794-2.9a1.117,1.117,0,0,0-1.063,0l-5.794,2.9a.352.352,0,0,0,0,.652l5.794,3.553a1.117,1.117,0,0,0,1.063,0" transform="translate(0 -36.648)" fill="#606060"/>
            <path id="Path_9-4" data-name="Path 9" d="M356.776,189.737v-3.924s0-.186-.108-.124a3.206,3.206,0,0,0-.382.237.329.329,0,0,0-.068.249v3.563a.1.1,0,0,1-.064.087.678.678,0,1,0,.684,0A.1.1,0,0,1,356.776,189.737Z" transform="translate(-344.147 -180.787)" fill="#606060"/>
          </g>
        </g>
      </g>
      <text id="Mr._G.Narendrababu_Reddy" data-name="Mr. G.Narendrababu 
Reddy" transform="translate(1072 4400)" fill="#060606" font-size="14" font-family="Lato-Medium, Lato" font-weight="500"><tspan x="0" y="0">Mr. G.Narendrababu </tspan><tspan x="0" y="17">Reddy</tspan></text>
      <path id="Rectangle_11" data-name="Rectangle 11" d="M11,0H204a11,11,0,0,1,11,11V70a0,0,0,0,1,0,0H0a0,0,0,0,1,0,0V11A11,11,0,0,1,11,0Z" transform="translate(1031 4205)" fill="#f5f5f5"/>
      <text id="_418" data-name="418" transform="translate(1114 4247)" fill="#060606" font-size="28" font-family="Lato-Bold, Lato" font-weight="700"><tspan x="0" y="0">418</tspan></text>
      <text id="Participations-4" data-name="Participations" transform="translate(1106 4265)" fill="#060606" font-size="11" font-family="Lato-Light, Lato" font-weight="300"><tspan x="0" y="0">Participations</tspan></text>
    </g>
    <g id="Group_3008" data-name="Group 3008">
      <line id="Line_9" data-name="Line 9" y1="116" transform="translate(1435.5 4088.5)" fill="none" stroke="#010a20" stroke-linecap="round" stroke-width="3" stroke-dasharray="2 8"/>
      <g transform="matrix(1, 0, 0, 1, 80.99, 3717.5)" filter="url(#Path_17)">
        <path id="Path_17-2" data-name="Path 17" d="M10,0H205a10,10,0,0,1,10,10V215a10,10,0,0,1-10,10H10A10,10,0,0,1,0,215V10A10,10,0,0,1,10,0Z" transform="translate(1247.01 487.5)" fill="#fff"/>
      </g>
      <text id="Vel_Tech_Multi_Tech_Dr_Rangarajan_Dr_Sakunthala_Engineering_College" data-name="Vel Tech Multi Tech Dr
Rangarajan Dr Sakunthala
Engineering College" transform="translate(1369 4306)" fill="#060606" font-size="14" font-family="Lato-Medium, Lato" font-weight="500"><tspan x="0" y="0">Vel Tech Multi Tech Dr</tspan><tspan x="0" y="17">Rangarajan Dr Sakunthala</tspan><tspan x="0" y="34">Engineering College</tspan></text>
      <text id="Chennai" transform="translate(1369 4366)" fill="#060606" font-size="14" font-family="Lato-Medium, Lato" font-weight="500"><tspan x="0" y="0">Chennai</tspan></text>
      <path id="ic_place_24px-5" data-name="ic_place_24px" d="M8.608,2A3.606,3.606,0,0,0,5,5.608c0,2.706,3.608,6.7,3.608,6.7s3.608-4,3.608-6.7A3.606,3.606,0,0,0,8.608,2Zm0,4.9A1.289,1.289,0,1,1,9.9,5.608,1.289,1.289,0,0,1,8.608,6.9Z" transform="translate(1340.177 4355.92)" fill="#606060"/>
      <g id="office-worker-outline-5" data-name="office-worker-outline" transform="translate(1343.433 4389.22)">
        <g id="Group_1-5" data-name="Group 1" transform="translate(0 0)">
          <path id="Path_3-5" data-name="Path 3" d="M17.341,5.838c.359-.077.691-.374.745-1.032.045-.539-.094-.817-.3-.958.567-2.31-1-2.762-1-2.762A2.344,2.344,0,0,0,13.344.495a4.072,4.072,0,0,0-1.009.865,3.6,3.6,0,0,0-.77,2.412c-.278.106-.5.375-.443,1.034.057.689.416.982.794,1.042a3.244,3.244,0,0,0,2.71,2.267A3.249,3.249,0,0,0,17.341,5.838Zm-2.714,1.7c-1.379,0-2.489-1.872-2.489-3.422,0-.212.007-.409.02-.592A4.729,4.729,0,0,0,16.016,2.1a4.53,4.53,0,0,1,1.1,1.964c0,.017,0,.033,0,.05C17.115,5.663,16.006,7.535,14.627,7.535Z" transform="translate(-9.261 0)" fill="#606060"/>
          <path id="Path_4-5" data-name="Path 4" d="M9.445,28.391l.16-.661a.385.385,0,0,1,.111-.192L9.667,27.5l-1.426-1.18-.868.2a3.15,3.15,0,0,0-2.5,3.01V31.4a.694.694,0,0,0,.719.661H9.261l.56-3.193A.39.39,0,0,1,9.445,28.391Z" transform="translate(-4.869 -18.513)" fill="#606060"/>
          <path id="Path_5-5" data-name="Path 5" d="M26.652,26.525l-.856-.2L24.372,27.5l-.047.036a.386.386,0,0,1,.112.192l.159.661a.39.39,0,0,1-.376.482l.56,3.193h3.673a.667.667,0,0,0,.689-.661V29.535A3.136,3.136,0,0,0,26.652,26.525Z" transform="translate(-18.478 -18.513)" fill="#606060"/>
        </g>
      </g>
      <g id="college-graduation-5" data-name="college-graduation" transform="translate(1342.599 4297.584)">
        <g id="Layer_5_59_5" data-name="Layer_5_59_" transform="translate(0 0)">
          <g id="Group_2-5" data-name="Group 2">
            <path id="Path_7-5" data-name="Path 7" d="M53.308,204.68a1.7,1.7,0,0,1-1.68,0l-3.8-2.332s-.343-.21-.343.266v2.329c0,1.227,2.232,2.55,4.986,2.55s4.986-1.323,4.986-2.55v-2.46c0-.383-.244-.2-.244-.2Z" transform="translate(-45.924 -196.809)" fill="#606060"/>
            <path id="Path_8-5" data-name="Path 8" d="M12.869,40.331a.352.352,0,0,0,0-.652l-5.794-2.9a1.117,1.117,0,0,0-1.063,0l-5.794,2.9a.352.352,0,0,0,0,.652l5.794,3.553a1.117,1.117,0,0,0,1.063,0" transform="translate(0 -36.648)" fill="#606060"/>
            <path id="Path_9-5" data-name="Path 9" d="M356.776,189.737v-3.924s0-.186-.108-.124a3.206,3.206,0,0,0-.382.237.329.329,0,0,0-.068.249v3.563a.1.1,0,0,1-.064.087.678.678,0,1,0,.684,0A.1.1,0,0,1,356.776,189.737Z" transform="translate(-344.147 -180.787)" fill="#606060"/>
          </g>
        </g>
      </g>
      <text id="Mr._Ramachandran_E" data-name="Mr. Ramachandran E" transform="translate(1369 4400)" fill="#060606" font-size="14" font-family="Lato-Medium, Lato" font-weight="500"><tspan x="0" y="0">Mr. Ramachandran E</tspan></text>
      <path id="Rectangle_12" data-name="Rectangle 12" d="M11,0H204a11,11,0,0,1,11,11V70a0,0,0,0,1,0,0H0a0,0,0,0,1,0,0V11A11,11,0,0,1,11,0Z" transform="translate(1328 4205)" fill="#f5f5f5"/>
      <text id="_377" data-name="377" transform="translate(1411 4247)" fill="#060606" font-size="28" font-family="Lato-Bold, Lato" font-weight="700"><tspan x="0" y="0">377</tspan></text>
      <text id="Participations-5" data-name="Participations" transform="translate(1403 4265)" fill="#060606" font-size="11" font-family="Lato-Light, Lato" font-weight="300"><tspan x="0" y="0">Participations</tspan></text>
    </g>
    <g id="Group_3009" data-name="Group 3009">
      <line id="Line_10" data-name="Line 10" y1="116" transform="translate(1743.5 4088.5)" fill="none" stroke="#010a20" stroke-linecap="round" stroke-width="3" stroke-dasharray="2 8"/>
      <g transform="matrix(1, 0, 0, 1, 80.99, 3717.5)" filter="url(#Path_18)">
        <path id="Path_18-2" data-name="Path 18" d="M10,0H205a10,10,0,0,1,10,10V215a10,10,0,0,1-10,10H10A10,10,0,0,1,0,215V10A10,10,0,0,1,10,0Z" transform="translate(1556.01 488.5)" fill="#fff"/>
      </g>
      <text id="Shri_Vishnu_Engineering_College_for_Women" data-name="Shri Vishnu Engineering 
College for Women" transform="translate(1678 4307)" fill="#060606" font-size="14" font-family="Lato-Medium, Lato" font-weight="500"><tspan x="0" y="0">Shri Vishnu Engineering </tspan><tspan x="0" y="17">College for Women</tspan></text>
      <text id="Bhimavaram" transform="translate(1678 4366)" fill="#060606" font-size="14" font-family="Lato-Medium, Lato" font-weight="500"><tspan x="0" y="0">Bhimavaram</tspan></text>
      <path id="ic_place_24px-6" data-name="ic_place_24px" d="M8.608,2A3.606,3.606,0,0,0,5,5.608c0,2.706,3.608,6.7,3.608,6.7s3.608-4,3.608-6.7A3.606,3.606,0,0,0,8.608,2Zm0,4.9A1.289,1.289,0,1,1,9.9,5.608,1.289,1.289,0,0,1,8.608,6.9Z" transform="translate(1649.177 4355.92)" fill="#606060"/>
      <g id="office-worker-outline-6" data-name="office-worker-outline" transform="translate(1652.433 4389.22)">
        <g id="Group_1-6" data-name="Group 1" transform="translate(0 0)">
          <path id="Path_3-6" data-name="Path 3" d="M17.341,5.838c.359-.077.691-.374.745-1.032.045-.539-.094-.817-.3-.958.567-2.31-1-2.762-1-2.762A2.344,2.344,0,0,0,13.344.495a4.072,4.072,0,0,0-1.009.865,3.6,3.6,0,0,0-.77,2.412c-.278.106-.5.375-.443,1.034.057.689.416.982.794,1.042a3.244,3.244,0,0,0,2.71,2.267A3.249,3.249,0,0,0,17.341,5.838Zm-2.714,1.7c-1.379,0-2.489-1.872-2.489-3.422,0-.212.007-.409.02-.592A4.729,4.729,0,0,0,16.016,2.1a4.53,4.53,0,0,1,1.1,1.964c0,.017,0,.033,0,.05C17.115,5.663,16.006,7.535,14.627,7.535Z" transform="translate(-9.261 0)" fill="#606060"/>
          <path id="Path_4-6" data-name="Path 4" d="M9.445,28.391l.16-.661a.385.385,0,0,1,.111-.192L9.667,27.5l-1.426-1.18-.868.2a3.15,3.15,0,0,0-2.5,3.01V31.4a.694.694,0,0,0,.719.661H9.261l.56-3.193A.39.39,0,0,1,9.445,28.391Z" transform="translate(-4.869 -18.513)" fill="#606060"/>
          <path id="Path_5-6" data-name="Path 5" d="M26.652,26.525l-.856-.2L24.372,27.5l-.047.036a.386.386,0,0,1,.112.192l.159.661a.39.39,0,0,1-.376.482l.56,3.193h3.673a.667.667,0,0,0,.689-.661V29.535A3.136,3.136,0,0,0,26.652,26.525Z" transform="translate(-18.478 -18.513)" fill="#606060"/>
        </g>
      </g>
      <g id="college-graduation-6" data-name="college-graduation" transform="translate(1651.599 4297.584)">
        <g id="Layer_5_59_6" data-name="Layer_5_59_" transform="translate(0 0)">
          <g id="Group_2-6" data-name="Group 2">
            <path id="Path_7-6" data-name="Path 7" d="M53.308,204.68a1.7,1.7,0,0,1-1.68,0l-3.8-2.332s-.343-.21-.343.266v2.329c0,1.227,2.232,2.55,4.986,2.55s4.986-1.323,4.986-2.55v-2.46c0-.383-.244-.2-.244-.2Z" transform="translate(-45.924 -196.809)" fill="#606060"/>
            <path id="Path_8-6" data-name="Path 8" d="M12.869,40.331a.352.352,0,0,0,0-.652l-5.794-2.9a1.117,1.117,0,0,0-1.063,0l-5.794,2.9a.352.352,0,0,0,0,.652l5.794,3.553a1.117,1.117,0,0,0,1.063,0" transform="translate(0 -36.648)" fill="#606060"/>
            <path id="Path_9-6" data-name="Path 9" d="M356.776,189.737v-3.924s0-.186-.108-.124a3.206,3.206,0,0,0-.382.237.329.329,0,0,0-.068.249v3.563a.1.1,0,0,1-.064.087.678.678,0,1,0,.684,0A.1.1,0,0,1,356.776,189.737Z" transform="translate(-344.147 -180.787)" fill="#606060"/>
          </g>
        </g>
      </g>
      <text id="Mr._G_Subbaraju" data-name="Mr. G Subbaraju" transform="translate(1678 4400)" fill="#060606" font-size="14" font-family="Lato-Medium, Lato" font-weight="500"><tspan x="0" y="0">Mr. G Subbaraju</tspan></text>
      <path id="Rectangle_13" data-name="Rectangle 13" d="M11,0H204a11,11,0,0,1,11,11V70a0,0,0,0,1,0,0H0a0,0,0,0,1,0,0V11A11,11,0,0,1,11,0Z" transform="translate(1637 4205)" fill="#f5f5f5"/>
      <text id="_310" data-name="310" transform="translate(1720 4247)" fill="#060606" font-size="28" font-family="Lato-Bold, Lato" font-weight="700"><tspan x="0" y="0">310</tspan></text>
      <text id="Participations-6" data-name="Participations" transform="translate(1712 4265)" fill="#060606" font-size="11" font-family="Lato-Light, Lato" font-weight="300"><tspan x="0" y="0">Participations</tspan></text>
    </g>
    <g id="Group_3003" data-name="Group 3003">
      <line id="Line_2" data-name="Line 2" y1="116" transform="translate(668.5 3931.5)" fill="none" stroke="#010a20" stroke-linecap="round" stroke-width="3" stroke-dasharray="2 8"/>
      <g transform="matrix(1, 0, 0, 1, 80.99, 3717.5)" filter="url(#Path_10)">
        <path id="Path_10-2" data-name="Path 10" d="M10,0H205a10,10,0,0,1,10,10V215a10,10,0,0,1-10,10H10A10,10,0,0,1,0,215V10A10,10,0,0,1,10,0Z" transform="translate(480.01 3.5)" fill="#fff"/>
      </g>
      <text id="Vellore_Institute_of_Technology" data-name="Vellore Institute of 
Technology" transform="translate(602 3822)" fill="#060606" font-size="14" font-family="Lato-Medium, Lato" font-weight="500"><tspan x="0" y="0">Vellore Institute of </tspan><tspan x="0" y="17">Technology</tspan></text>
      <text id="Vellore" transform="translate(602 3883)" fill="#060606" font-size="14" font-family="Lato-Medium, Lato" font-weight="500"><tspan x="0" y="0">Vellore</tspan></text>
      <path id="ic_place_24px-7" data-name="ic_place_24px" d="M8.608,2A3.606,3.606,0,0,0,5,5.608c0,2.706,3.608,6.7,3.608,6.7s3.608-4,3.608-6.7A3.606,3.606,0,0,0,8.608,2Zm0,4.9A1.289,1.289,0,1,1,9.9,5.608,1.289,1.289,0,0,1,8.608,6.9Z" transform="translate(573.177 3870.92)" fill="#606060"/>
      <g id="office-worker-outline-7" data-name="office-worker-outline" transform="translate(576.433 3904.22)">
        <g id="Group_1-7" data-name="Group 1" transform="translate(0 0)">
          <path id="Path_3-7" data-name="Path 3" d="M17.341,5.838c.359-.077.691-.374.745-1.032.045-.539-.094-.817-.3-.958.567-2.31-1-2.762-1-2.762A2.344,2.344,0,0,0,13.344.495a4.072,4.072,0,0,0-1.009.865,3.6,3.6,0,0,0-.77,2.412c-.278.106-.5.375-.443,1.034.057.689.416.982.794,1.042a3.244,3.244,0,0,0,2.71,2.267A3.249,3.249,0,0,0,17.341,5.838Zm-2.714,1.7c-1.379,0-2.489-1.872-2.489-3.422,0-.212.007-.409.02-.592A4.729,4.729,0,0,0,16.016,2.1a4.53,4.53,0,0,1,1.1,1.964c0,.017,0,.033,0,.05C17.115,5.663,16.006,7.535,14.627,7.535Z" transform="translate(-9.261 0)" fill="#606060"/>
          <path id="Path_4-7" data-name="Path 4" d="M9.445,28.391l.16-.661a.385.385,0,0,1,.111-.192L9.667,27.5l-1.426-1.18-.868.2a3.15,3.15,0,0,0-2.5,3.01V31.4a.694.694,0,0,0,.719.661H9.261l.56-3.193A.39.39,0,0,1,9.445,28.391Z" transform="translate(-4.869 -18.513)" fill="#606060"/>
          <path id="Path_5-7" data-name="Path 5" d="M26.652,26.525l-.856-.2L24.372,27.5l-.047.036a.386.386,0,0,1,.112.192l.159.661a.39.39,0,0,1-.376.482l.56,3.193h3.673a.667.667,0,0,0,.689-.661V29.535A3.136,3.136,0,0,0,26.652,26.525Z" transform="translate(-18.478 -18.513)" fill="#606060"/>
        </g>
      </g>
      <g id="college-graduation-7" data-name="college-graduation" transform="translate(575.599 3812.584)">
        <g id="Layer_5_59_7" data-name="Layer_5_59_" transform="translate(0 0)">
          <g id="Group_2-7" data-name="Group 2">
            <path id="Path_7-7" data-name="Path 7" d="M53.308,204.68a1.7,1.7,0,0,1-1.68,0l-3.8-2.332s-.343-.21-.343.266v2.329c0,1.227,2.232,2.55,4.986,2.55s4.986-1.323,4.986-2.55v-2.46c0-.383-.244-.2-.244-.2Z" transform="translate(-45.924 -196.809)" fill="#606060"/>
            <path id="Path_8-7" data-name="Path 8" d="M12.869,40.331a.352.352,0,0,0,0-.652l-5.794-2.9a1.117,1.117,0,0,0-1.063,0l-5.794,2.9a.352.352,0,0,0,0,.652l5.794,3.553a1.117,1.117,0,0,0,1.063,0" transform="translate(0 -36.648)" fill="#606060"/>
            <path id="Path_9-7" data-name="Path 9" d="M356.776,189.737v-3.924s0-.186-.108-.124a3.206,3.206,0,0,0-.382.237.329.329,0,0,0-.068.249v3.563a.1.1,0,0,1-.064.087.678.678,0,1,0,.684,0A.1.1,0,0,1,356.776,189.737Z" transform="translate(-344.147 -180.787)" fill="#606060"/>
          </g>
        </g>
      </g>
      <text id="Dr._Samuel_Rajkumar_V" data-name="Dr. Samuel Rajkumar V" transform="translate(602 3917)" fill="#060606" font-size="14" font-family="Lato-Medium, Lato" font-weight="500"><tspan x="0" y="0">Dr. Samuel Rajkumar V</tspan></text>
      <path id="Rectangle_5" data-name="Rectangle 5" d="M11,0H204a11,11,0,0,1,11,11V70a0,0,0,0,1,0,0H0a0,0,0,0,1,0,0V11A11,11,0,0,1,11,0Z" transform="translate(561 3721)" fill="#f5f5f5"/>
      <text id="_516" data-name="516" transform="translate(644 3758)" fill="#060606" font-size="28" font-family="Lato-Bold, Lato" font-weight="700"><tspan x="0" y="0">516</tspan></text>
      <text id="Participations-7" data-name="Participations" transform="translate(636 3779)" fill="#060606" font-size="11" font-family="Lato-Light, Lato" font-weight="300"><tspan x="0" y="0">Participations</tspan></text>
    </g>
    <g id="Group_3002" data-name="Group 3002">
      <line id="Line_3" data-name="Line 3" y1="116" transform="translate(968.5 3931.5)" fill="none" stroke="#010a20" stroke-linecap="round" stroke-width="3" stroke-dasharray="2 8"/>
      <g transform="matrix(1, 0, 0, 1, 80.99, 3717.5)" filter="url(#Path_11)">
        <path id="Path_11-2" data-name="Path 11" d="M10,0H205a10,10,0,0,1,10,10V215a10,10,0,0,1-10,10H10A10,10,0,0,1,0,215V10A10,10,0,0,1,10,0Z" transform="translate(780.01 3.5)" fill="#fff"/>
      </g>
      <text id="National_Institute_of_Technology_Raipur" data-name="National Institute of 
Technology Raipur" transform="translate(902 3822)" fill="#060606" font-size="14" font-family="Lato-Medium, Lato" font-weight="500"><tspan x="0" y="0">National Institute of </tspan><tspan x="0" y="17">Technology Raipur</tspan></text>
      <text id="Raipur" transform="translate(902 3883)" fill="#060606" font-size="14" font-family="Lato-Medium, Lato" font-weight="500"><tspan x="0" y="0">Raipur</tspan></text>
      <path id="ic_place_24px-8" data-name="ic_place_24px" d="M8.608,2A3.606,3.606,0,0,0,5,5.608c0,2.706,3.608,6.7,3.608,6.7s3.608-4,3.608-6.7A3.606,3.606,0,0,0,8.608,2Zm0,4.9A1.289,1.289,0,1,1,9.9,5.608,1.289,1.289,0,0,1,8.608,6.9Z" transform="translate(875.177 3870.92)" fill="#606060"/>
      <g id="office-worker-outline-8" data-name="office-worker-outline" transform="translate(878.433 3904.22)">
        <g id="Group_1-8" data-name="Group 1" transform="translate(0 0)">
          <path id="Path_3-8" data-name="Path 3" d="M17.341,5.838c.359-.077.691-.374.745-1.032.045-.539-.094-.817-.3-.958.567-2.31-1-2.762-1-2.762A2.344,2.344,0,0,0,13.344.495a4.072,4.072,0,0,0-1.009.865,3.6,3.6,0,0,0-.77,2.412c-.278.106-.5.375-.443,1.034.057.689.416.982.794,1.042a3.244,3.244,0,0,0,2.71,2.267A3.249,3.249,0,0,0,17.341,5.838Zm-2.714,1.7c-1.379,0-2.489-1.872-2.489-3.422,0-.212.007-.409.02-.592A4.729,4.729,0,0,0,16.016,2.1a4.53,4.53,0,0,1,1.1,1.964c0,.017,0,.033,0,.05C17.115,5.663,16.006,7.535,14.627,7.535Z" transform="translate(-9.261 0)" fill="#606060"/>
          <path id="Path_4-8" data-name="Path 4" d="M9.445,28.391l.16-.661a.385.385,0,0,1,.111-.192L9.667,27.5l-1.426-1.18-.868.2a3.15,3.15,0,0,0-2.5,3.01V31.4a.694.694,0,0,0,.719.661H9.261l.56-3.193A.39.39,0,0,1,9.445,28.391Z" transform="translate(-4.869 -18.513)" fill="#606060"/>
          <path id="Path_5-8" data-name="Path 5" d="M26.652,26.525l-.856-.2L24.372,27.5l-.047.036a.386.386,0,0,1,.112.192l.159.661a.39.39,0,0,1-.376.482l.56,3.193h3.673a.667.667,0,0,0,.689-.661V29.535A3.136,3.136,0,0,0,26.652,26.525Z" transform="translate(-18.478 -18.513)" fill="#606060"/>
        </g>
      </g>
      <g id="college-graduation-8" data-name="college-graduation" transform="translate(877.599 3812.584)">
        <g id="Layer_5_59_8" data-name="Layer_5_59_" transform="translate(0 0)">
          <g id="Group_2-8" data-name="Group 2">
            <path id="Path_7-8" data-name="Path 7" d="M53.308,204.68a1.7,1.7,0,0,1-1.68,0l-3.8-2.332s-.343-.21-.343.266v2.329c0,1.227,2.232,2.55,4.986,2.55s4.986-1.323,4.986-2.55v-2.46c0-.383-.244-.2-.244-.2Z" transform="translate(-45.924 -196.809)" fill="#606060"/>
            <path id="Path_8-8" data-name="Path 8" d="M12.869,40.331a.352.352,0,0,0,0-.652l-5.794-2.9a1.117,1.117,0,0,0-1.063,0l-5.794,2.9a.352.352,0,0,0,0,.652l5.794,3.553a1.117,1.117,0,0,0,1.063,0" transform="translate(0 -36.648)" fill="#606060"/>
            <path id="Path_9-8" data-name="Path 9" d="M356.776,189.737v-3.924s0-.186-.108-.124a3.206,3.206,0,0,0-.382.237.329.329,0,0,0-.068.249v3.563a.1.1,0,0,1-.064.087.678.678,0,1,0,.684,0A.1.1,0,0,1,356.776,189.737Z" transform="translate(-344.147 -180.787)" fill="#606060"/>
          </g>
        </g>
      </g>
      <text id="Prof._Samir_Bajpai" data-name="Prof. Samir Bajpai" transform="translate(902 3917)" fill="#060606" font-size="14" font-family="Lato-Medium, Lato" font-weight="500"><tspan x="0" y="0">Prof. Samir Bajpai</tspan></text>
      <path id="Rectangle_6" data-name="Rectangle 6" d="M11,0H204a11,11,0,0,1,11,11V70a0,0,0,0,1,0,0H0a0,0,0,0,1,0,0V11A11,11,0,0,1,11,0Z" transform="translate(861 3721)" fill="#f5f5f5"/>
      <text id="_430" data-name="430" transform="translate(944 3758)" fill="#060606" font-size="28" font-family="Lato-Bold, Lato" font-weight="700"><tspan x="0" y="0">430</tspan></text>
      <text id="Participations-8" data-name="Participations" transform="translate(936 3779)" fill="#060606" font-size="11" font-family="Lato-Light, Lato" font-weight="300"><tspan x="0" y="0">Participations</tspan></text>
    </g>
    <g id="Group_3001" data-name="Group 3001">
      <line id="Line_4" data-name="Line 4" y1="116" transform="translate(1280.5 3931.5)" fill="none" stroke="#010a20" stroke-linecap="round" stroke-width="3" stroke-dasharray="2 8"/>
      <g transform="matrix(1, 0, 0, 1, 80.99, 3717.5)" filter="url(#Path_12)">
        <path id="Path_12-2" data-name="Path 12" d="M10,0H205a10,10,0,0,1,10,10V215a10,10,0,0,1-10,10H10A10,10,0,0,1,0,215V10A10,10,0,0,1,10,0Z" transform="translate(1092.01 3.5)" fill="#fff"/>
      </g>
      <text id="KCG_College_of_Technology" data-name="KCG College of 
Technology" transform="translate(1214 3822)" fill="#060606" font-size="14" font-family="Lato-Medium, Lato" font-weight="500"><tspan x="0" y="0">KCG College of </tspan><tspan x="0" y="17">Technology</tspan></text>
      <text id="Chennai-2" data-name="Chennai" transform="translate(1214 3883)" fill="#060606" font-size="14" font-family="Lato-Medium, Lato" font-weight="500"><tspan x="0" y="0">Chennai</tspan></text>
      <path id="ic_place_24px-9" data-name="ic_place_24px" d="M8.608,2A3.606,3.606,0,0,0,5,5.608c0,2.706,3.608,6.7,3.608,6.7s3.608-4,3.608-6.7A3.606,3.606,0,0,0,8.608,2Zm0,4.9A1.289,1.289,0,1,1,9.9,5.608,1.289,1.289,0,0,1,8.608,6.9Z" transform="translate(1185.177 3870.92)" fill="#606060"/>
      <g id="office-worker-outline-9" data-name="office-worker-outline" transform="translate(1188.433 3904.22)">
        <g id="Group_1-9" data-name="Group 1" transform="translate(0 0)">
          <path id="Path_3-9" data-name="Path 3" d="M17.341,5.838c.359-.077.691-.374.745-1.032.045-.539-.094-.817-.3-.958.567-2.31-1-2.762-1-2.762A2.344,2.344,0,0,0,13.344.495a4.072,4.072,0,0,0-1.009.865,3.6,3.6,0,0,0-.77,2.412c-.278.106-.5.375-.443,1.034.057.689.416.982.794,1.042a3.244,3.244,0,0,0,2.71,2.267A3.249,3.249,0,0,0,17.341,5.838Zm-2.714,1.7c-1.379,0-2.489-1.872-2.489-3.422,0-.212.007-.409.02-.592A4.729,4.729,0,0,0,16.016,2.1a4.53,4.53,0,0,1,1.1,1.964c0,.017,0,.033,0,.05C17.115,5.663,16.006,7.535,14.627,7.535Z" transform="translate(-9.261 0)" fill="#606060"/>
          <path id="Path_4-9" data-name="Path 4" d="M9.445,28.391l.16-.661a.385.385,0,0,1,.111-.192L9.667,27.5l-1.426-1.18-.868.2a3.15,3.15,0,0,0-2.5,3.01V31.4a.694.694,0,0,0,.719.661H9.261l.56-3.193A.39.39,0,0,1,9.445,28.391Z" transform="translate(-4.869 -18.513)" fill="#606060"/>
          <path id="Path_5-9" data-name="Path 5" d="M26.652,26.525l-.856-.2L24.372,27.5l-.047.036a.386.386,0,0,1,.112.192l.159.661a.39.39,0,0,1-.376.482l.56,3.193h3.673a.667.667,0,0,0,.689-.661V29.535A3.136,3.136,0,0,0,26.652,26.525Z" transform="translate(-18.478 -18.513)" fill="#606060"/>
        </g>
      </g>
      <g id="college-graduation-9" data-name="college-graduation" transform="translate(1187.599 3812.584)">
        <g id="Layer_5_59_9" data-name="Layer_5_59_" transform="translate(0 0)">
          <g id="Group_2-9" data-name="Group 2">
            <path id="Path_7-9" data-name="Path 7" d="M53.308,204.68a1.7,1.7,0,0,1-1.68,0l-3.8-2.332s-.343-.21-.343.266v2.329c0,1.227,2.232,2.55,4.986,2.55s4.986-1.323,4.986-2.55v-2.46c0-.383-.244-.2-.244-.2Z" transform="translate(-45.924 -196.809)" fill="#606060"/>
            <path id="Path_8-9" data-name="Path 8" d="M12.869,40.331a.352.352,0,0,0,0-.652l-5.794-2.9a1.117,1.117,0,0,0-1.063,0l-5.794,2.9a.352.352,0,0,0,0,.652l5.794,3.553a1.117,1.117,0,0,0,1.063,0" transform="translate(0 -36.648)" fill="#606060"/>
            <path id="Path_9-9" data-name="Path 9" d="M356.776,189.737v-3.924s0-.186-.108-.124a3.206,3.206,0,0,0-.382.237.329.329,0,0,0-.068.249v3.563a.1.1,0,0,1-.064.087.678.678,0,1,0,.684,0A.1.1,0,0,1,356.776,189.737Z" transform="translate(-344.147 -180.787)" fill="#606060"/>
          </g>
        </g>
      </g>
      <text id="Mr._Pavan_Kashyap_C_R" data-name="Mr. Pavan Kashyap C R" transform="translate(1214 3917)" fill="#060606" font-size="14" font-family="Lato-Medium, Lato" font-weight="500"><tspan x="0" y="0">Mr. Pavan Kashyap C R</tspan></text>
      <path id="Rectangle_7" data-name="Rectangle 7" d="M11,0H204a11,11,0,0,1,11,11V70a0,0,0,0,1,0,0H0a0,0,0,0,1,0,0V11A11,11,0,0,1,11,0Z" transform="translate(1173 3721)" fill="#f5f5f5"/>
      <text id="_388" data-name="388" transform="translate(1256 3758)" fill="#060606" font-size="28" font-family="Lato-Bold, Lato" font-weight="700"><tspan x="0" y="0">388</tspan></text>
      <text id="Participations-9" data-name="Participations" transform="translate(1248 3779)" fill="#060606" font-size="11" font-family="Lato-Light, Lato" font-weight="300"><tspan x="0" y="0">Participations</tspan></text>
    </g>
    <g id="Group_3000" data-name="Group 3000">
      <line id="Line_5" data-name="Line 5" y1="116" transform="translate(1592.5 3931.5)" fill="none" stroke="#010a20" stroke-linecap="round" stroke-width="3" stroke-dasharray="2 8"/>
      <g transform="matrix(1, 0, 0, 1, 80.99, 3717.5)" filter="url(#Path_13)">
        <path id="Path_13-2" data-name="Path 13" d="M10,0H205a10,10,0,0,1,10,10V215a10,10,0,0,1-10,10H10A10,10,0,0,1,0,215V10A10,10,0,0,1,10,0Z" transform="translate(1404.01 3.5)" fill="#fff"/>
      </g>
      <text id="Koneru_Lakshmaiah_Education_Foundation_-_College_of_Engineering" data-name="Koneru Lakshmaiah
Education Foundation - 
College of Engineering" transform="translate(1526 3822)" fill="#060606" font-size="14" font-family="Lato-Medium, Lato" font-weight="500"><tspan x="0" y="0">Koneru Lakshmaiah</tspan><tspan x="0" y="17">Education Foundation - </tspan><tspan x="0" y="34">College of Engineering</tspan></text>
      <text id="Guntur" transform="translate(1526 3883)" fill="#060606" font-size="14" font-family="Lato-Medium, Lato" font-weight="500"><tspan x="0" y="0">Guntur</tspan></text>
      <path id="ic_place_24px-10" data-name="ic_place_24px" d="M8.608,2A3.606,3.606,0,0,0,5,5.608c0,2.706,3.608,6.7,3.608,6.7s3.608-4,3.608-6.7A3.606,3.606,0,0,0,8.608,2Zm0,4.9A1.289,1.289,0,1,1,9.9,5.608,1.289,1.289,0,0,1,8.608,6.9Z" transform="translate(1498.177 3870.92)" fill="#606060"/>
      <g id="office-worker-outline-10" data-name="office-worker-outline" transform="translate(1501.433 3904.22)">
        <g id="Group_1-10" data-name="Group 1" transform="translate(0 0)">
          <path id="Path_3-10" data-name="Path 3" d="M17.341,5.838c.359-.077.691-.374.745-1.032.045-.539-.094-.817-.3-.958.567-2.31-1-2.762-1-2.762A2.344,2.344,0,0,0,13.344.495a4.072,4.072,0,0,0-1.009.865,3.6,3.6,0,0,0-.77,2.412c-.278.106-.5.375-.443,1.034.057.689.416.982.794,1.042a3.244,3.244,0,0,0,2.71,2.267A3.249,3.249,0,0,0,17.341,5.838Zm-2.714,1.7c-1.379,0-2.489-1.872-2.489-3.422,0-.212.007-.409.02-.592A4.729,4.729,0,0,0,16.016,2.1a4.53,4.53,0,0,1,1.1,1.964c0,.017,0,.033,0,.05C17.115,5.663,16.006,7.535,14.627,7.535Z" transform="translate(-9.261 0)" fill="#606060"/>
          <path id="Path_4-10" data-name="Path 4" d="M9.445,28.391l.16-.661a.385.385,0,0,1,.111-.192L9.667,27.5l-1.426-1.18-.868.2a3.15,3.15,0,0,0-2.5,3.01V31.4a.694.694,0,0,0,.719.661H9.261l.56-3.193A.39.39,0,0,1,9.445,28.391Z" transform="translate(-4.869 -18.513)" fill="#606060"/>
          <path id="Path_5-10" data-name="Path 5" d="M26.652,26.525l-.856-.2L24.372,27.5l-.047.036a.386.386,0,0,1,.112.192l.159.661a.39.39,0,0,1-.376.482l.56,3.193h3.673a.667.667,0,0,0,.689-.661V29.535A3.136,3.136,0,0,0,26.652,26.525Z" transform="translate(-18.478 -18.513)" fill="#606060"/>
        </g>
      </g>
      <g id="college-graduation-10" data-name="college-graduation" transform="translate(1500.599 3812.584)">
        <g id="Layer_5_59_10" data-name="Layer_5_59_" transform="translate(0 0)">
          <g id="Group_2-10" data-name="Group 2">
            <path id="Path_7-10" data-name="Path 7" d="M53.308,204.68a1.7,1.7,0,0,1-1.68,0l-3.8-2.332s-.343-.21-.343.266v2.329c0,1.227,2.232,2.55,4.986,2.55s4.986-1.323,4.986-2.55v-2.46c0-.383-.244-.2-.244-.2Z" transform="translate(-45.924 -196.809)" fill="#606060"/>
            <path id="Path_8-10" data-name="Path 8" d="M12.869,40.331a.352.352,0,0,0,0-.652l-5.794-2.9a1.117,1.117,0,0,0-1.063,0l-5.794,2.9a.352.352,0,0,0,0,.652l5.794,3.553a1.117,1.117,0,0,0,1.063,0" transform="translate(0 -36.648)" fill="#606060"/>
            <path id="Path_9-10" data-name="Path 9" d="M356.776,189.737v-3.924s0-.186-.108-.124a3.206,3.206,0,0,0-.382.237.329.329,0,0,0-.068.249v3.563a.1.1,0,0,1-.064.087.678.678,0,1,0,.684,0A.1.1,0,0,1,356.776,189.737Z" transform="translate(-344.147 -180.787)" fill="#606060"/>
          </g>
        </g>
      </g>
      <text id="Mr._NBV_Prasad" data-name="Mr. NBV Prasad" transform="translate(1526 3917)" fill="#060606" font-size="14" font-family="Lato-Medium, Lato" font-weight="500"><tspan x="0" y="0">Mr. NBV Prasad</tspan></text>
      <path id="Rectangle_8" data-name="Rectangle 8" d="M11,0H204a11,11,0,0,1,11,11V70a0,0,0,0,1,0,0H0a0,0,0,0,1,0,0V11A11,11,0,0,1,11,0Z" transform="translate(1485 3721)" fill="#f5f5f5"/>
      <text id="_366" data-name="366" transform="translate(1568 3758)" fill="#060606" font-size="28" font-family="Lato-Bold, Lato" font-weight="700"><tspan x="0" y="0">366</tspan></text>
      <text id="Participations-10" data-name="Participations" transform="translate(1560 3779)" fill="#060606" font-size="11" font-family="Lato-Light, Lato" font-weight="300"><tspan x="0" y="0">Participations</tspan></text>
    </g>
    <text id="ETCS_2018-19_Campuses_with_the_highest_participation" data-name="ETCS 2018-19
Campuses with the
highest participation" transform="translate(164 4063)" fill="#fcfcfc" font-size="14" font-family="Lato-Regular, Lato"><tspan x="-44.499" y="0">ETCS 2018-19</tspan><tspan x="-58.121" y="17">Campuses with the</tspan><tspan x="-63.119" y="34">highest participation</tspan></text>
  </g>
</svg>
