<svg xmlns="http://www.w3.org/2000/svg" width="125.54" height="135.626" viewBox="0 0 125.54 135.626"><defs><style>.a{fill:#010a20;}</style></defs><path class="a" d="M605.212,290c-1.035-1.191-1.662-2.163-1.035-3.48.658-1.348,1.787-1.568,3.135-1.536,1.819.031,3.668.063,5.487-.031.376-.031,1.035-.6,1.035-.909.063-5.644.031-11.287.031-16.931,0-.094-.094-.157-.251-.408-2.258,1.223-4.891,1.85-5.362,5.142a52.941,52.941,0,0,1-1.693,6.177c-.533,1.913-1.348,2.383-3.229,1.913-1.662-.439-3.323-.878-4.985-1.38-1.819-.533-2.289-1.38-1.787-3.167q6.114-21.634,12.228-43.237c.627-2.257,1.411-2.665,3.7-2.038,1.5.408,3.041.815,4.515,1.254,1.881.564,2.352,1.38,1.818,3.261-.941,3.386-1.85,6.741-2.885,10.1a3.576,3.576,0,0,0,.314,3.1c.345.564.6,1.223.941,1.819a15.258,15.258,0,0,1,1.881,7.964c-.094,10.19,0,20.38-.063,30.57,0,1.411.345,1.913,1.818,1.85,3.229-.094,6.49-.031,9.72-.031,2.446,0,3.543,1.066,3.543,3.543v63.46a3.036,3.036,0,0,1-3.292,3.355H602.265c-2.383,0-3.449-1.129-3.449-3.637V310.792c0-2.916-.063-5.863.031-8.779.031-1.38-.314-1.881-1.787-1.881-9.814.063-19.627.031-29.472.031-2.853,0-3.888-1.035-3.888-3.857v-2.665c.031-2.571,1.066-3.637,3.606-3.637h37.907Z" transform="translate(-508.549 -224.757)"/><path class="a" d="M460.94,345.618V352.3c0,5.55.031,11.068-.031,16.617-.031,1.411.439,1.787,1.787,1.756,6.114-.063,12.228-.063,18.342-.031a9.868,9.868,0,0,1,9.688,7.65,11.611,11.611,0,0,1,.282,2.947c.031,10.817,0,21.634,0,32.451,0,2.1,0,2.1,2.163,2.1,1,0,1.975-.031,2.979,0a5.051,5.051,0,0,1,4.891,4.923,4.987,4.987,0,0,1-4.766,5.2c-5.236.094-10.441.094-15.677,0a4.926,4.926,0,0,1-4.734-5.2c-.031-9.343,0-18.718-.031-28.062,0-1.662-.094-3.355.031-5.017.094-1.411-.345-1.881-1.819-1.85-9.155.063-18.279.031-27.434.031-6.678.031-10.911-4.139-10.911-10.786V336.306c0-6.678,4.17-10.817,10.848-10.848,10.472-.031,9.751-.47,19.251,5.33a18.658,18.658,0,0,1,1.881,1.129c3.857,3.167,8.277,4.045,13.137,3.606,2.54-.219,5.111-.063,7.682-.031a7.589,7.589,0,0,1,.125,15.175c-5.8.063-11.6.094-17.4-.063a10.468,10.468,0,0,1-4.233-1.348C465.047,348.315,463.2,347,460.94,345.618Z" transform="translate(-420.682 -290.373)"/><path class="a" d="M387.8,376.8V346.861a5.018,5.018,0,0,1,3.386-4.954,4.77,4.77,0,0,1,5.612,1.6,7.33,7.33,0,0,1,1.129,3.762q.094,23.374.063,46.717c0,2.038.094,4.076-.031,6.114-.094,1.442.439,1.724,1.787,1.724,10.974-.063,21.948-.031,32.921-.031,3.574,0,6.02,2.79,5.393,6.114a5.023,5.023,0,0,1-5.079,4.045c-4.452.031-8.873.031-13.325,0-1.191,0-1.662.282-1.63,1.568.063,3.919.094,7.838,0,11.758-.031,1.348.47,1.724,1.724,1.63a31.649,31.649,0,0,1,3.449,0,5.075,5.075,0,0,1,4.891,4.609,5.179,5.179,0,0,1-4.013,5.456,4.919,4.919,0,0,1-5.832-3.323c-.408-1.474-1.129-1.693-2.414-1.63-2.038.094-4.076.063-6.114,0-1.066-.031-1.63.188-1.944,1.411a4.919,4.919,0,0,1-5.55,3.574,5.124,5.124,0,0,1-4.358-4.484,4.932,4.932,0,0,1,3.543-5.424,20.007,20.007,0,0,1,4.358-.251c2.1-.031,2.1,0,2.1-2.163,0-3.7-.063-7.431.031-11.131.031-1.348-.439-1.662-1.693-1.662-4.327.063-8.685.031-13.012.031a5,5,0,0,1-5.361-5.393q-.047-14.815-.031-29.723Z" transform="translate(-387.8 -301.461)"/><path class="a" d="M466.025,228.681A15.113,15.113,0,1,1,450.881,213.6,15.061,15.061,0,0,1,466.025,228.681Z" transform="translate(-420.75 -213.6)"/></svg>