<svg xmlns="http://www.w3.org/2000/svg" width="168.351" height="135.677" viewBox="0 0 168.351 135.677"><defs><style>.a{fill:#010a20;}</style></defs><path class="a" d="M401.942,405.641c3.141.189,4.315,1.514,4.844,4.125a44.753,44.753,0,0,0,8.516,18.507c1.476,1.968,1.627,4.125,1.741,6.321a54.5,54.5,0,0,1-2.839,20.627c-1.022,3.066-2.157,6.056-1.779,9.386a2.271,2.271,0,0,1-.076,1.249c-3.368,4.39-1.817,9.613-2.422,14.42a77.583,77.583,0,0,0-.265,8.4c-.038,1.325-.492,2.157-1.93,2.157H396.189c-.189-6.283-.341-12.111-.53-17.978a19.338,19.338,0,0,0-.114-3.331,5.452,5.452,0,0,0-1.249-1.779,7.679,7.679,0,0,0-1.211,1.968,14.91,14.91,0,0,0-.114,2.914c-.038,4.882-.076,9.8-.151,14.685,0,.984-.114,1.93-.189,3.368a109.188,109.188,0,0,1-13.171,0c-.227-2.5-.492-4.844-.568-7.153-.151-4.2-.227-8.4-.341-12.6-.038-1.514.114-2.99-1.514-4.088-.606-.378-.833-1.741-.757-2.611a21.459,21.459,0,0,0-1.59-8.554c-3.179-8.743-3.331-17.788-2.5-26.91.416-4.58,1.1-9.159,1.514-13.739.3-3.141,1.211-5.6,4.731-6.548a70.428,70.428,0,0,0,8.024-3.179c2.271,5.261,2.422,10.976,5.336,16.577.378-3.482.681-6.207.984-8.894.114-1.135.189-2.422,1.741-2.309,1.362.114,1.627,1.287,1.7,2.5.038,1.249.076,2.536.189,3.785a7.893,7.893,0,0,0,1.325,4.125c.719-2.536,1.476-5.109,2.2-7.645C400.617,410.9,401.261,408.328,401.942,405.641Z" transform="translate(-371.764 -355.302)"/><path class="a" d="M525.857,358.732c-22.86.492-42.919-18.659-42.957-42.806-.038-20.816,16.464-42.5,42.73-42.73a42.8,42.8,0,0,1,42.957,42.919C568.435,340.868,548.035,359.111,525.857,358.732Zm-.454-8.44a34.272,34.272,0,1,0,.189-68.542c-20.892.076-34.025,17.031-34.176,33.76A34.281,34.281,0,0,0,525.4,350.292Z" transform="translate(-440.838 -273.195)"/><path class="a" d="M554.954,555.077H543.032a1.682,1.682,0,0,1-1.892-1.779c-.076-.984-.114-1.968-.151-2.952-.114-4.352,0-8.7-.416-13.02-.265-2.914.757-6.245-2.082-8.591a2.138,2.138,0,0,1-.265-1.59c.416-3.747-.87-7.153-2.006-10.6-.833-2.5-1.362-5.072-2.119-7.948,5.147,1.438,9.84,2.914,14.609,4.05a38.588,38.588,0,0,0,15.442.341c4.92-.833,9.727-2.309,14.761-3.558.151,3.066-1.173,6.018-2.119,8.97a20.131,20.131,0,0,0-1.4,7.759c.076,1.362.113,2.687-1.249,3.747-.606.454-.719,1.741-.757,2.649-.265,5.45-.454,10.9-.719,16.35-.3,7.04.53,6.056-6.131,6.131-2.5.038-5,0-7.721,0-.114-1.4-.3-2.46-.3-3.52-.076-6.018-.114-12.036-.227-18.053-.038-1.249.454-3.293-1.59-3.217-1.627.038-1.287,1.892-1.325,3.066-.114,5.753-.151,11.468-.227,17.221C555.143,551.935,555.068,553.3,554.954,555.077Z" transform="translate(-472.66 -419.505)"/><path class="a" d="M753.8,452.007c-7-6.661-13.587-12.906-20.1-19.189-2.763-2.649-5.564-5.034-9.424-5.942a4.445,4.445,0,0,1-2.12-1.741c-1.173-1.7-2.8-3.444-2.99-5.3-.189-1.7,1.325-3.6,1.93-5.45s1.06-3.747,1.552-5.639c.189-.681.151-1.514.53-2.006a3.828,3.828,0,0,1,1.968-1.287c.265-.076,1.022.833,1.173,1.4.908,3.368,1.7,6.775,2.611,10.143a10.288,10.288,0,0,0,1.892,3.974c.227-1.855.492-3.747.681-5.6a16.044,16.044,0,0,1,.3-3.331,2.4,2.4,0,0,1,1.665-1.476c.454-.038,1.4.908,1.476,1.552.454,2.876.681,5.829,1.022,9.046,2.082-2.309,2.157-5.147,2.952-7.683.833-2.612,1.4-5.337,2.157-8.478,3.785,1.59,7.3,2.914,10.635,4.58a4.66,4.66,0,0,1,1.855,2.99c.53,2.574.757,5.223,1.1,7.872.833,7.229,1.7,14.42,1.211,21.724A30.412,30.412,0,0,1,753.8,452.007Z" transform="translate(-587.677 -355.115)"/><path class="a" d="M734.142,525.706a7.5,7.5,0,0,1-5.715-2.233c-8.781-8.4-17.561-16.766-26.228-25.244a8.42,8.42,0,1,1,11.657-12.149c8.856,8.326,17.561,16.729,26.3,25.206,2.649,2.574,3.482,5.677,1.855,9.159A8.441,8.441,0,0,1,734.142,525.706Z" transform="translate(-575.434 -403.948)"/><path class="a" d="M425.166,344.215a19.8,19.8,0,0,1-4.315,10.219c-3.331,3.936-7.342,3.9-10.522-.227a20.376,20.376,0,0,1-4.239-12c-.189-5.109,4.466-9.386,9.765-9.311C420.246,333.012,425.772,336.342,425.166,344.215Z" transform="translate(-393.095 -310.301)"/><path class="a" d="M750.684,342.888c-.53,3.936-1.627,8.1-4.466,11.543-3.141,3.86-7.04,3.9-10.257.114a18.821,18.821,0,0,1-4.466-12.717,9.334,9.334,0,0,1,9.651-8.932A9.7,9.7,0,0,1,750.684,342.888Z" transform="translate(-595.344 -310.299)"/><path class="a" d="M709.269,556.6c1.817,1.59,2.839,2.5,3.86,3.406,3.633,3.444,7.229,6.964,10.9,10.37a5.175,5.175,0,0,1,1.892,4.39c-.189,3.179-.227,6.358-.341,9.992-4.466.454-8.7.151-13.133.227a26.059,26.059,0,0,1-.416-3.028c-.227-5-.416-10.03-.681-15.025-.113-2.271.454-4.693-1.779-6.548C709.042,559.968,709.345,558.568,709.269,556.6Z" transform="translate(-581.52 -449.338)"/><path class="a" d="M774.417,609.85c-.114,2.157-.227,3.633-.341,5.336-4.428.719-8.667.227-13.057.378-1.1-3.1-.341-6.093-.719-9.765C764.842,608.941,769.043,610.569,774.417,609.85Z" transform="translate(-613.249 -479.917)"/><path class="a" d="M686.735,464.754a7.087,7.087,0,0,1-1.022,1.855c-1.968,2.157-3.936,4.315-6.056,6.358-1.628,1.552-3.066,1.476-4.353.076-1.173-1.249-1.173-2.422.265-4.012A75.043,75.043,0,0,1,682,462.483,2.9,2.9,0,0,1,686.735,464.754Z" transform="translate(-559.894 -390.419)"/><path class="a" d="M551.213,394c2.157,5.374,2.271,11.127,5.336,16.994.379-3.028.643-5.034.871-7.078.076-.681.076-1.4.114-2.082.076-1.211.492-2.422,1.854-2.233.643.114,1.4,1.287,1.552,2.082.379,2.2.492,4.428.719,6.661a22.622,22.622,0,0,0,.454,2.347c2.99-5.488,3.066-11.2,5.147-16.464a59.059,59.059,0,0,1,10.862,4.315A3.588,3.588,0,0,1,579.9,400.7c.833,3.293,1.06,6.283-1.968,9.159a26.093,26.093,0,0,1-38.3-2.763c-2.725-3.482-1.817-7.532,2.157-9.273C544.854,396.46,548,395.287,551.213,394Z" transform="translate(-475.125 -348.278)"/><path class="a" d="M587.861,329.126c-.606,4.239-1.665,8.856-5,12.565-3.293,3.709-6.7,3.709-9.992-.038a20.4,20.4,0,0,1-4.882-13.1c-.189-5.412,4.5-9.575,10.143-9.462A9.794,9.794,0,0,1,587.861,329.126Z" transform="translate(-493.72 -301.722)"/></svg>