<svg xmlns="http://www.w3.org/2000/svg" xmlns:xlink="http://www.w3.org/1999/xlink" width="1775.515" height="723" viewBox="0 0 1775.515 723"><defs><style>.a,.b,.g{fill:none;}.b,.e,.g{stroke:#010a20;}.b,.g{stroke-width:3px;}.c,.e{fill:#010a20;}.d{clip-path:url(#c);}.f,.h{fill:#fff;}.f{font-size:18px;font-family:Montserrat-Bold, Montserrat;}.f,.l{font-weight:700;}.g{stroke-linecap:round;stroke-dasharray:2 8;}.i,.l,.m,.n{fill:#060606;}.i,.o{font-size:14px;}.i{font-family:Lato-Medium, Lato;font-weight:500;}.j{fill:#606060;}.k{fill:#f5f5f5;}.l{font-size:28px;font-family:Lato-Bold, Lato;}.m{font-size:12px;}.m,.o{font-family:Lato-Regular, Lato;}.n{font-size:11px;font-family:Lato-Light, Lato;font-weight:300;}.o{fill:#fcfcfc;}.p{stroke:none;}.q{filter:url(#v);}.r{filter:url(#t);}.s{filter:url(#r);}.t{filter:url(#p);}.u{filter:url(#n);}.v{filter:url(#l);}.w{filter:url(#j);}.x{filter:url(#h);}.y{filter:url(#f);}.z{filter:url(#d);}.aa{filter:url(#a);}</style><filter id="a" x="0" y="300.37" width="166.511" height="134.046" filterUnits="userSpaceOnUse"><feOffset dy="3" input="SourceAlpha"/><feGaussianBlur stdDeviation="3" result="b"/><feFlood flood-opacity="0.161"/><feComposite operator="in" in2="b"/><feComposite in="SourceGraphic"/></filter><clipPath id="c"><rect class="a" width="1487" height="55"/></clipPath><filter id="d" x="163.515" y="0" width="224" height="234" filterUnits="userSpaceOnUse"><feOffset dy="1" input="SourceAlpha"/><feGaussianBlur stdDeviation="1.5" result="e"/><feFlood flood-opacity="0.161"/><feComposite operator="in" in2="e"/><feComposite in="SourceGraphic"/></filter><filter id="f" x="314.515" y="485" width="224" height="234" filterUnits="userSpaceOnUse"><feOffset dy="1" input="SourceAlpha"/><feGaussianBlur stdDeviation="1.5" result="g"/><feFlood flood-opacity="0.161"/><feComposite operator="in" in2="g"/><feComposite in="SourceGraphic"/></filter><filter id="h" x="630.515" y="485" width="224" height="234" filterUnits="userSpaceOnUse"><feOffset dy="1" input="SourceAlpha"/><feGaussianBlur stdDeviation="1.5" result="i"/><feFlood flood-opacity="0.161"/><feComposite operator="in" in2="i"/><feComposite in="SourceGraphic"/></filter><filter id="j" x="945.515" y="489" width="224" height="234" filterUnits="userSpaceOnUse"><feOffset dy="1" input="SourceAlpha"/><feGaussianBlur stdDeviation="1.5" result="k"/><feFlood flood-opacity="0.161"/><feComposite operator="in" in2="k"/><feComposite in="SourceGraphic"/></filter><filter id="l" x="1242.515" y="484" width="224" height="234" filterUnits="userSpaceOnUse"><feOffset dy="1" input="SourceAlpha"/><feGaussianBlur stdDeviation="1.5" result="m"/><feFlood flood-opacity="0.161"/><feComposite operator="in" in2="m"/><feComposite in="SourceGraphic"/></filter><filter id="n" x="1551.515" y="485" width="224" height="234" filterUnits="userSpaceOnUse"><feOffset dy="1" input="SourceAlpha"/><feGaussianBlur stdDeviation="1.5" result="o"/><feFlood flood-opacity="0.161"/><feComposite operator="in" in2="o"/><feComposite in="SourceGraphic"/></filter><filter id="p" x="475.515" y="0" width="224" height="234" filterUnits="userSpaceOnUse"><feOffset dy="1" input="SourceAlpha"/><feGaussianBlur stdDeviation="1.5" result="q"/><feFlood flood-opacity="0.161"/><feComposite operator="in" in2="q"/><feComposite in="SourceGraphic"/></filter><filter id="r" x="775.515" y="0" width="224" height="234" filterUnits="userSpaceOnUse"><feOffset dy="1" input="SourceAlpha"/><feGaussianBlur stdDeviation="1.5" result="s"/><feFlood flood-opacity="0.161"/><feComposite operator="in" in2="s"/><feComposite in="SourceGraphic"/></filter><filter id="t" x="1087.515" y="0" width="224" height="234" filterUnits="userSpaceOnUse"><feOffset dy="1" input="SourceAlpha"/><feGaussianBlur stdDeviation="1.5" result="u"/><feFlood flood-opacity="0.161"/><feComposite operator="in" in2="u"/><feComposite in="SourceGraphic"/></filter><filter id="v" x="1399.515" y="0" width="224" height="234" filterUnits="userSpaceOnUse"><feOffset dy="1" input="SourceAlpha"/><feGaussianBlur stdDeviation="1.5" result="w"/><feFlood flood-opacity="0.161"/><feComposite operator="in" in2="w"/><feComposite in="SourceGraphic"/></filter></defs><g transform="translate(-80.985 -3717.5)"><path class="b" d="M13,.268H1526" transform="translate(225.5 4074.5)"/><g class="aa" transform="matrix(1, 0, 0, 1, 80.99, 3717.5)"><path class="c" d="M74.794,35.214l73.716,22.562V151.26H0V57.776Z" transform="translate(157.51 457.63) rotate(-180)"/></g><g class="d" transform="translate(332 4047)"><g transform="translate(-361 -1340)"><g class="e" transform="translate(361 1340)"><circle class="p" cx="25" cy="25" r="25"/><circle class="a" cx="25" cy="25" r="24.5"/></g><text class="f" transform="translate(381 1372)"><tspan x="0" y="0">1</tspan></text></g><g transform="translate(-207 -1340)"><g class="e" transform="translate(361 1340)"><circle class="p" cx="25" cy="25" r="25"/><circle class="a" cx="25" cy="25" r="24.5"/></g><text class="f" transform="translate(381 1372)"><tspan x="0" y="0">2</tspan></text></g><g transform="translate(-53 -1340)"><g class="e" transform="translate(361 1340)"><circle class="p" cx="25" cy="25" r="25"/><circle class="a" cx="25" cy="25" r="24.5"/></g><text class="f" transform="translate(381 1372)"><tspan x="0" y="0">3</tspan></text></g><g transform="translate(101 -1340)"><g class="e" transform="translate(361 1340)"><circle class="p" cx="25" cy="25" r="25"/><circle class="a" cx="25" cy="25" r="24.5"/></g><text class="f" transform="translate(381 1372)"><tspan x="0" y="0">4</tspan></text></g><g transform="translate(255 -1340)"><g class="e" transform="translate(361 1340)"><circle class="p" cx="25" cy="25" r="25"/><circle class="a" cx="25" cy="25" r="24.5"/></g><text class="f" transform="translate(381 1372)"><tspan x="0" y="0">5</tspan></text></g><g transform="translate(409 -1340)"><g class="e" transform="translate(361 1340)"><circle class="p" cx="25" cy="25" r="25"/><circle class="a" cx="25" cy="25" r="24.5"/></g><text class="f" transform="translate(381 1372)"><tspan x="0" y="0">6</tspan></text></g><g transform="translate(563 -1340)"><g class="e" transform="translate(361 1340)"><circle class="p" cx="25" cy="25" r="25"/><circle class="a" cx="25" cy="25" r="24.5"/></g><text class="f" transform="translate(381 1372)"><tspan x="0" y="0">7</tspan></text></g><g transform="translate(717 -1340)"><g class="e" transform="translate(361 1340)"><circle class="p" cx="25" cy="25" r="25"/><circle class="a" cx="25" cy="25" r="24.5"/></g><text class="f" transform="translate(381 1372)"><tspan x="0" y="0">8</tspan></text></g><g transform="translate(871 -1340)"><g class="e" transform="translate(361 1340)"><circle class="p" cx="25" cy="25" r="25"/><circle class="a" cx="25" cy="25" r="24.5"/></g><text class="f" transform="translate(381 1372)"><tspan x="0" y="0">9</tspan></text></g><g transform="translate(1025 -1340)"><g class="e" transform="translate(361 1340)"><circle class="p" cx="25" cy="25" r="25"/><circle class="a" cx="25" cy="25" r="24.5"/></g><text class="f" transform="translate(381 1372)"><tspan x="0" y="0">10</tspan></text></g></g><line class="g" y1="116" transform="translate(356.5 3931.5)"/><g class="z" transform="matrix(1, 0, 0, 1, 80.99, 3717.5)"><path class="h" d="M10,0H205a10,10,0,0,1,10,10V215a10,10,0,0,1-10,10H10A10,10,0,0,1,0,215V10A10,10,0,0,1,10,0Z" transform="translate(168.01 3.5)"/></g><text class="i" transform="translate(290 3822)"><tspan x="0" y="0">Lakshmi Narain Collage of</tspan><tspan x="0" y="17">Technology</tspan></text><text class="i" transform="translate(290 3883)"><tspan x="0" y="0">Bhopal</tspan></text><path class="j" d="M8.608,2A3.606,3.606,0,0,0,5,5.608c0,2.706,3.608,6.7,3.608,6.7s3.608-4,3.608-6.7A3.606,3.606,0,0,0,8.608,2Zm0,4.9A1.289,1.289,0,1,1,9.9,5.608,1.289,1.289,0,0,1,8.608,6.9Z" transform="translate(261.177 3870.92)"/><g transform="translate(264.433 3904.22)"><g transform="translate(0 0)"><path class="j" d="M17.341,5.838c.359-.077.691-.374.745-1.032.045-.539-.094-.817-.3-.958.567-2.31-1-2.762-1-2.762A2.344,2.344,0,0,0,13.344.495a4.072,4.072,0,0,0-1.009.865,3.6,3.6,0,0,0-.77,2.412c-.278.106-.5.375-.443,1.034.057.689.416.982.794,1.042a3.244,3.244,0,0,0,2.71,2.267A3.249,3.249,0,0,0,17.341,5.838Zm-2.714,1.7c-1.379,0-2.489-1.872-2.489-3.422,0-.212.007-.409.02-.592A4.729,4.729,0,0,0,16.016,2.1a4.53,4.53,0,0,1,1.1,1.964c0,.017,0,.033,0,.05C17.115,5.663,16.006,7.535,14.627,7.535Z" transform="translate(-9.261 0)"/><path class="j" d="M9.445,28.391l.16-.661a.385.385,0,0,1,.111-.192L9.667,27.5l-1.426-1.18-.868.2a3.15,3.15,0,0,0-2.5,3.01V31.4a.694.694,0,0,0,.719.661H9.261l.56-3.193A.39.39,0,0,1,9.445,28.391Z" transform="translate(-4.869 -18.513)"/><path class="j" d="M26.652,26.525l-.856-.2L24.372,27.5l-.047.036a.386.386,0,0,1,.112.192l.159.661a.39.39,0,0,1-.376.482l.56,3.193h3.673a.667.667,0,0,0,.689-.661V29.535A3.136,3.136,0,0,0,26.652,26.525Z" transform="translate(-18.478 -18.513)"/></g></g><g transform="translate(263.599 3812.584)"><g transform="translate(0 0)"><path class="j" d="M53.308,204.68a1.7,1.7,0,0,1-1.68,0l-3.8-2.332s-.343-.21-.343.266v2.329c0,1.227,2.232,2.55,4.986,2.55s4.986-1.323,4.986-2.55v-2.46c0-.383-.244-.2-.244-.2Z" transform="translate(-45.924 -196.809)"/><path class="j" d="M12.869,40.331a.352.352,0,0,0,0-.652l-5.794-2.9a1.117,1.117,0,0,0-1.063,0l-5.794,2.9a.352.352,0,0,0,0,.652l5.794,3.553a1.117,1.117,0,0,0,1.063,0" transform="translate(0 -36.648)"/><path class="j" d="M356.776,189.737v-3.924s0-.186-.108-.124a3.206,3.206,0,0,0-.382.237.329.329,0,0,0-.068.249v3.563a.1.1,0,0,1-.064.087.678.678,0,1,0,.684,0A.1.1,0,0,1,356.776,189.737Z" transform="translate(-344.147 -180.787)"/></g></g><text class="i" transform="translate(290 3917)"><tspan x="0" y="0">Mr. Anuj Garg</tspan></text><path class="k" d="M11,0H204a11,11,0,0,1,11,11V70a0,0,0,0,1,0,0H0a0,0,0,0,1,0,0V11A11,11,0,0,1,11,0Z" transform="translate(249 3721)"/><text class="l" transform="translate(332 3758)"><tspan x="0" y="0">756</tspan></text><text class="m" transform="translate(317 3779)"><tspan x="0" y="0">Participations</tspan></text><line class="g" y1="116" transform="translate(510.5 4088.5)"/><g class="y" transform="matrix(1, 0, 0, 1, 80.99, 3717.5)"><path class="h" d="M10,0H205a10,10,0,0,1,10,10V215a10,10,0,0,1-10,10H10A10,10,0,0,1,0,215V10A10,10,0,0,1,10,0Z" transform="translate(319.01 488.5)"/></g><text class="i" transform="translate(441 4307)"><tspan x="0" y="0">Chandigarh Group of </tspan><tspan x="0" y="17">Colleges -College of</tspan><tspan x="0" y="34">Engineering</tspan></text><text class="i" transform="translate(441 4366)"><tspan x="0" y="0">Mohali</tspan></text><path class="j" d="M8.608,2A3.606,3.606,0,0,0,5,5.608c0,2.706,3.608,6.7,3.608,6.7s3.608-4,3.608-6.7A3.606,3.606,0,0,0,8.608,2Zm0,4.9A1.289,1.289,0,1,1,9.9,5.608,1.289,1.289,0,0,1,8.608,6.9Z" transform="translate(412.177 4355.92)"/><g transform="translate(415.433 4389.22)"><g transform="translate(0 0)"><path class="j" d="M17.341,5.838c.359-.077.691-.374.745-1.032.045-.539-.094-.817-.3-.958.567-2.31-1-2.762-1-2.762A2.344,2.344,0,0,0,13.344.495a4.072,4.072,0,0,0-1.009.865,3.6,3.6,0,0,0-.77,2.412c-.278.106-.5.375-.443,1.034.057.689.416.982.794,1.042a3.244,3.244,0,0,0,2.71,2.267A3.249,3.249,0,0,0,17.341,5.838Zm-2.714,1.7c-1.379,0-2.489-1.872-2.489-3.422,0-.212.007-.409.02-.592A4.729,4.729,0,0,0,16.016,2.1a4.53,4.53,0,0,1,1.1,1.964c0,.017,0,.033,0,.05C17.115,5.663,16.006,7.535,14.627,7.535Z" transform="translate(-9.261 0)"/><path class="j" d="M9.445,28.391l.16-.661a.385.385,0,0,1,.111-.192L9.667,27.5l-1.426-1.18-.868.2a3.15,3.15,0,0,0-2.5,3.01V31.4a.694.694,0,0,0,.719.661H9.261l.56-3.193A.39.39,0,0,1,9.445,28.391Z" transform="translate(-4.869 -18.513)"/><path class="j" d="M26.652,26.525l-.856-.2L24.372,27.5l-.047.036a.386.386,0,0,1,.112.192l.159.661a.39.39,0,0,1-.376.482l.56,3.193h3.673a.667.667,0,0,0,.689-.661V29.535A3.136,3.136,0,0,0,26.652,26.525Z" transform="translate(-18.478 -18.513)"/></g></g><g transform="translate(414.599 4297.584)"><g transform="translate(0 0)"><path class="j" d="M53.308,204.68a1.7,1.7,0,0,1-1.68,0l-3.8-2.332s-.343-.21-.343.266v2.329c0,1.227,2.232,2.55,4.986,2.55s4.986-1.323,4.986-2.55v-2.46c0-.383-.244-.2-.244-.2Z" transform="translate(-45.924 -196.809)"/><path class="j" d="M12.869,40.331a.352.352,0,0,0,0-.652l-5.794-2.9a1.117,1.117,0,0,0-1.063,0l-5.794,2.9a.352.352,0,0,0,0,.652l5.794,3.553a1.117,1.117,0,0,0,1.063,0" transform="translate(0 -36.648)"/><path class="j" d="M356.776,189.737v-3.924s0-.186-.108-.124a3.206,3.206,0,0,0-.382.237.329.329,0,0,0-.068.249v3.563a.1.1,0,0,1-.064.087.678.678,0,1,0,.684,0A.1.1,0,0,1,356.776,189.737Z" transform="translate(-344.147 -180.787)"/></g></g><text class="i" transform="translate(441 4400)"><tspan x="0" y="0">Mr. Navneet Singh</tspan></text><path class="k" d="M11,0H204a11,11,0,0,1,11,11V70a0,0,0,0,1,0,0H0a0,0,0,0,1,0,0V11A11,11,0,0,1,11,0Z" transform="translate(400 4205)"/><text class="l" transform="translate(483 4247)"><tspan x="0" y="0">681</tspan></text><text class="n" transform="translate(475 4265)"><tspan x="0" y="0">Participations</tspan></text><line class="g" y1="116" transform="translate(820.5 4088.5)"/><g class="x" transform="matrix(1, 0, 0, 1, 80.99, 3717.5)"><path class="h" d="M10,0H205a10,10,0,0,1,10,10V215a10,10,0,0,1-10,10H10A10,10,0,0,1,0,215V10A10,10,0,0,1,10,0Z" transform="translate(635.01 488.5)"/></g><text class="i" transform="translate(757 4307)"><tspan x="0" y="0">Gayatri Vidya Parishad </tspan><tspan x="0" y="17">College of Engineering</tspan></text><text class="i" transform="translate(757 4366)"><tspan x="0" y="0">Visakhapatnam</tspan></text><path class="j" d="M8.608,2A3.606,3.606,0,0,0,5,5.608c0,2.706,3.608,6.7,3.608,6.7s3.608-4,3.608-6.7A3.606,3.606,0,0,0,8.608,2Zm0,4.9A1.289,1.289,0,1,1,9.9,5.608,1.289,1.289,0,0,1,8.608,6.9Z" transform="translate(727.177 4355.92)"/><g transform="translate(730.433 4389.22)"><g transform="translate(0 0)"><path class="j" d="M17.341,5.838c.359-.077.691-.374.745-1.032.045-.539-.094-.817-.3-.958.567-2.31-1-2.762-1-2.762A2.344,2.344,0,0,0,13.344.495a4.072,4.072,0,0,0-1.009.865,3.6,3.6,0,0,0-.77,2.412c-.278.106-.5.375-.443,1.034.057.689.416.982.794,1.042a3.244,3.244,0,0,0,2.71,2.267A3.249,3.249,0,0,0,17.341,5.838Zm-2.714,1.7c-1.379,0-2.489-1.872-2.489-3.422,0-.212.007-.409.02-.592A4.729,4.729,0,0,0,16.016,2.1a4.53,4.53,0,0,1,1.1,1.964c0,.017,0,.033,0,.05C17.115,5.663,16.006,7.535,14.627,7.535Z" transform="translate(-9.261 0)"/><path class="j" d="M9.445,28.391l.16-.661a.385.385,0,0,1,.111-.192L9.667,27.5l-1.426-1.18-.868.2a3.15,3.15,0,0,0-2.5,3.01V31.4a.694.694,0,0,0,.719.661H9.261l.56-3.193A.39.39,0,0,1,9.445,28.391Z" transform="translate(-4.869 -18.513)"/><path class="j" d="M26.652,26.525l-.856-.2L24.372,27.5l-.047.036a.386.386,0,0,1,.112.192l.159.661a.39.39,0,0,1-.376.482l.56,3.193h3.673a.667.667,0,0,0,.689-.661V29.535A3.136,3.136,0,0,0,26.652,26.525Z" transform="translate(-18.478 -18.513)"/></g></g><g transform="translate(729.599 4297.584)"><g transform="translate(0 0)"><path class="j" d="M53.308,204.68a1.7,1.7,0,0,1-1.68,0l-3.8-2.332s-.343-.21-.343.266v2.329c0,1.227,2.232,2.55,4.986,2.55s4.986-1.323,4.986-2.55v-2.46c0-.383-.244-.2-.244-.2Z" transform="translate(-45.924 -196.809)"/><path class="j" d="M12.869,40.331a.352.352,0,0,0,0-.652l-5.794-2.9a1.117,1.117,0,0,0-1.063,0l-5.794,2.9a.352.352,0,0,0,0,.652l5.794,3.553a1.117,1.117,0,0,0,1.063,0" transform="translate(0 -36.648)"/><path class="j" d="M356.776,189.737v-3.924s0-.186-.108-.124a3.206,3.206,0,0,0-.382.237.329.329,0,0,0-.068.249v3.563a.1.1,0,0,1-.064.087.678.678,0,1,0,.684,0A.1.1,0,0,1,356.776,189.737Z" transform="translate(-344.147 -180.787)"/></g></g><text class="i" transform="translate(757 4400)"><tspan x="0" y="0">Dr. Venkata Rao</tspan></text><path class="k" d="M11,0H204a11,11,0,0,1,11,11V70a0,0,0,0,1,0,0H0a0,0,0,0,1,0,0V11A11,11,0,0,1,11,0Z" transform="translate(716 4205)"/><text class="l" transform="translate(799 4247)"><tspan x="0" y="0">508</tspan></text><text class="n" transform="translate(791 4265)"><tspan x="0" y="0">Participations</tspan></text><line class="g" y1="116" transform="translate(1129.5 4092.5)"/><g class="w" transform="matrix(1, 0, 0, 1, 80.99, 3717.5)"><path class="h" d="M10,0H205a10,10,0,0,1,10,10V215a10,10,0,0,1-10,10H10A10,10,0,0,1,0,215V10A10,10,0,0,1,10,0Z" transform="translate(950.01 492.5)"/></g><text class="i" transform="translate(1072 4311)"><tspan x="0" y="0">G Narayanamma Institute</tspan><tspan x="0" y="17">of Technology &amp; Sciences</tspan></text><text class="i" transform="translate(1072 4366)"><tspan x="0" y="0">Hyderabad</tspan></text><path class="j" d="M8.608,2A3.606,3.606,0,0,0,5,5.608c0,2.706,3.608,6.7,3.608,6.7s3.608-4,3.608-6.7A3.606,3.606,0,0,0,8.608,2Zm0,4.9A1.289,1.289,0,1,1,9.9,5.608,1.289,1.289,0,0,1,8.608,6.9Z" transform="translate(1045.177 4355.92)"/><g transform="translate(1048.433 4389.22)"><g transform="translate(0 0)"><path class="j" d="M17.341,5.838c.359-.077.691-.374.745-1.032.045-.539-.094-.817-.3-.958.567-2.31-1-2.762-1-2.762A2.344,2.344,0,0,0,13.344.495a4.072,4.072,0,0,0-1.009.865,3.6,3.6,0,0,0-.77,2.412c-.278.106-.5.375-.443,1.034.057.689.416.982.794,1.042a3.244,3.244,0,0,0,2.71,2.267A3.249,3.249,0,0,0,17.341,5.838Zm-2.714,1.7c-1.379,0-2.489-1.872-2.489-3.422,0-.212.007-.409.02-.592A4.729,4.729,0,0,0,16.016,2.1a4.53,4.53,0,0,1,1.1,1.964c0,.017,0,.033,0,.05C17.115,5.663,16.006,7.535,14.627,7.535Z" transform="translate(-9.261 0)"/><path class="j" d="M9.445,28.391l.16-.661a.385.385,0,0,1,.111-.192L9.667,27.5l-1.426-1.18-.868.2a3.15,3.15,0,0,0-2.5,3.01V31.4a.694.694,0,0,0,.719.661H9.261l.56-3.193A.39.39,0,0,1,9.445,28.391Z" transform="translate(-4.869 -18.513)"/><path class="j" d="M26.652,26.525l-.856-.2L24.372,27.5l-.047.036a.386.386,0,0,1,.112.192l.159.661a.39.39,0,0,1-.376.482l.56,3.193h3.673a.667.667,0,0,0,.689-.661V29.535A3.136,3.136,0,0,0,26.652,26.525Z" transform="translate(-18.478 -18.513)"/></g></g><g transform="translate(1047.599 4297.584)"><g transform="translate(0 0)"><path class="j" d="M53.308,204.68a1.7,1.7,0,0,1-1.68,0l-3.8-2.332s-.343-.21-.343.266v2.329c0,1.227,2.232,2.55,4.986,2.55s4.986-1.323,4.986-2.55v-2.46c0-.383-.244-.2-.244-.2Z" transform="translate(-45.924 -196.809)"/><path class="j" d="M12.869,40.331a.352.352,0,0,0,0-.652l-5.794-2.9a1.117,1.117,0,0,0-1.063,0l-5.794,2.9a.352.352,0,0,0,0,.652l5.794,3.553a1.117,1.117,0,0,0,1.063,0" transform="translate(0 -36.648)"/><path class="j" d="M356.776,189.737v-3.924s0-.186-.108-.124a3.206,3.206,0,0,0-.382.237.329.329,0,0,0-.068.249v3.563a.1.1,0,0,1-.064.087.678.678,0,1,0,.684,0A.1.1,0,0,1,356.776,189.737Z" transform="translate(-344.147 -180.787)"/></g></g><text class="i" transform="translate(1072 4400)"><tspan x="0" y="0">Mr. G.Narendrababu </tspan><tspan x="0" y="17">Reddy</tspan></text><path class="k" d="M11,0H204a11,11,0,0,1,11,11V70a0,0,0,0,1,0,0H0a0,0,0,0,1,0,0V11A11,11,0,0,1,11,0Z" transform="translate(1031 4205)"/><text class="l" transform="translate(1114 4247)"><tspan x="0" y="0">418</tspan></text><text class="n" transform="translate(1106 4265)"><tspan x="0" y="0">Participations</tspan></text><line class="g" y1="116" transform="translate(1435.5 4088.5)"/><g class="v" transform="matrix(1, 0, 0, 1, 80.99, 3717.5)"><path class="h" d="M10,0H205a10,10,0,0,1,10,10V215a10,10,0,0,1-10,10H10A10,10,0,0,1,0,215V10A10,10,0,0,1,10,0Z" transform="translate(1247.01 487.5)"/></g><text class="i" transform="translate(1369 4306)"><tspan x="0" y="0">Vel Tech Multi Tech Dr</tspan><tspan x="0" y="17">Rangarajan Dr Sakunthala</tspan><tspan x="0" y="34">Engineering College</tspan></text><text class="i" transform="translate(1369 4366)"><tspan x="0" y="0">Chennai</tspan></text><path class="j" d="M8.608,2A3.606,3.606,0,0,0,5,5.608c0,2.706,3.608,6.7,3.608,6.7s3.608-4,3.608-6.7A3.606,3.606,0,0,0,8.608,2Zm0,4.9A1.289,1.289,0,1,1,9.9,5.608,1.289,1.289,0,0,1,8.608,6.9Z" transform="translate(1340.177 4355.92)"/><g transform="translate(1343.433 4389.22)"><g transform="translate(0 0)"><path class="j" d="M17.341,5.838c.359-.077.691-.374.745-1.032.045-.539-.094-.817-.3-.958.567-2.31-1-2.762-1-2.762A2.344,2.344,0,0,0,13.344.495a4.072,4.072,0,0,0-1.009.865,3.6,3.6,0,0,0-.77,2.412c-.278.106-.5.375-.443,1.034.057.689.416.982.794,1.042a3.244,3.244,0,0,0,2.71,2.267A3.249,3.249,0,0,0,17.341,5.838Zm-2.714,1.7c-1.379,0-2.489-1.872-2.489-3.422,0-.212.007-.409.02-.592A4.729,4.729,0,0,0,16.016,2.1a4.53,4.53,0,0,1,1.1,1.964c0,.017,0,.033,0,.05C17.115,5.663,16.006,7.535,14.627,7.535Z" transform="translate(-9.261 0)"/><path class="j" d="M9.445,28.391l.16-.661a.385.385,0,0,1,.111-.192L9.667,27.5l-1.426-1.18-.868.2a3.15,3.15,0,0,0-2.5,3.01V31.4a.694.694,0,0,0,.719.661H9.261l.56-3.193A.39.39,0,0,1,9.445,28.391Z" transform="translate(-4.869 -18.513)"/><path class="j" d="M26.652,26.525l-.856-.2L24.372,27.5l-.047.036a.386.386,0,0,1,.112.192l.159.661a.39.39,0,0,1-.376.482l.56,3.193h3.673a.667.667,0,0,0,.689-.661V29.535A3.136,3.136,0,0,0,26.652,26.525Z" transform="translate(-18.478 -18.513)"/></g></g><g transform="translate(1342.599 4297.584)"><g transform="translate(0 0)"><path class="j" d="M53.308,204.68a1.7,1.7,0,0,1-1.68,0l-3.8-2.332s-.343-.21-.343.266v2.329c0,1.227,2.232,2.55,4.986,2.55s4.986-1.323,4.986-2.55v-2.46c0-.383-.244-.2-.244-.2Z" transform="translate(-45.924 -196.809)"/><path class="j" d="M12.869,40.331a.352.352,0,0,0,0-.652l-5.794-2.9a1.117,1.117,0,0,0-1.063,0l-5.794,2.9a.352.352,0,0,0,0,.652l5.794,3.553a1.117,1.117,0,0,0,1.063,0" transform="translate(0 -36.648)"/><path class="j" d="M356.776,189.737v-3.924s0-.186-.108-.124a3.206,3.206,0,0,0-.382.237.329.329,0,0,0-.068.249v3.563a.1.1,0,0,1-.064.087.678.678,0,1,0,.684,0A.1.1,0,0,1,356.776,189.737Z" transform="translate(-344.147 -180.787)"/></g></g><text class="i" transform="translate(1369 4400)"><tspan x="0" y="0">Mr. Ramachandran E</tspan></text><path class="k" d="M11,0H204a11,11,0,0,1,11,11V70a0,0,0,0,1,0,0H0a0,0,0,0,1,0,0V11A11,11,0,0,1,11,0Z" transform="translate(1328 4205)"/><text class="l" transform="translate(1411 4247)"><tspan x="0" y="0">377</tspan></text><text class="n" transform="translate(1403 4265)"><tspan x="0" y="0">Participations</tspan></text><line class="g" y1="116" transform="translate(1743.5 4088.5)"/><g class="u" transform="matrix(1, 0, 0, 1, 80.99, 3717.5)"><path class="h" d="M10,0H205a10,10,0,0,1,10,10V215a10,10,0,0,1-10,10H10A10,10,0,0,1,0,215V10A10,10,0,0,1,10,0Z" transform="translate(1556.01 488.5)"/></g><text class="i" transform="translate(1678 4307)"><tspan x="0" y="0">Shri Vishnu Engineering </tspan><tspan x="0" y="17">College for Women</tspan></text><text class="i" transform="translate(1678 4366)"><tspan x="0" y="0">Bhimavaram</tspan></text><path class="j" d="M8.608,2A3.606,3.606,0,0,0,5,5.608c0,2.706,3.608,6.7,3.608,6.7s3.608-4,3.608-6.7A3.606,3.606,0,0,0,8.608,2Zm0,4.9A1.289,1.289,0,1,1,9.9,5.608,1.289,1.289,0,0,1,8.608,6.9Z" transform="translate(1649.177 4355.92)"/><g transform="translate(1652.433 4389.22)"><g transform="translate(0 0)"><path class="j" d="M17.341,5.838c.359-.077.691-.374.745-1.032.045-.539-.094-.817-.3-.958.567-2.31-1-2.762-1-2.762A2.344,2.344,0,0,0,13.344.495a4.072,4.072,0,0,0-1.009.865,3.6,3.6,0,0,0-.77,2.412c-.278.106-.5.375-.443,1.034.057.689.416.982.794,1.042a3.244,3.244,0,0,0,2.71,2.267A3.249,3.249,0,0,0,17.341,5.838Zm-2.714,1.7c-1.379,0-2.489-1.872-2.489-3.422,0-.212.007-.409.02-.592A4.729,4.729,0,0,0,16.016,2.1a4.53,4.53,0,0,1,1.1,1.964c0,.017,0,.033,0,.05C17.115,5.663,16.006,7.535,14.627,7.535Z" transform="translate(-9.261 0)"/><path class="j" d="M9.445,28.391l.16-.661a.385.385,0,0,1,.111-.192L9.667,27.5l-1.426-1.18-.868.2a3.15,3.15,0,0,0-2.5,3.01V31.4a.694.694,0,0,0,.719.661H9.261l.56-3.193A.39.39,0,0,1,9.445,28.391Z" transform="translate(-4.869 -18.513)"/><path class="j" d="M26.652,26.525l-.856-.2L24.372,27.5l-.047.036a.386.386,0,0,1,.112.192l.159.661a.39.39,0,0,1-.376.482l.56,3.193h3.673a.667.667,0,0,0,.689-.661V29.535A3.136,3.136,0,0,0,26.652,26.525Z" transform="translate(-18.478 -18.513)"/></g></g><g transform="translate(1651.599 4297.584)"><g transform="translate(0 0)"><path class="j" d="M53.308,204.68a1.7,1.7,0,0,1-1.68,0l-3.8-2.332s-.343-.21-.343.266v2.329c0,1.227,2.232,2.55,4.986,2.55s4.986-1.323,4.986-2.55v-2.46c0-.383-.244-.2-.244-.2Z" transform="translate(-45.924 -196.809)"/><path class="j" d="M12.869,40.331a.352.352,0,0,0,0-.652l-5.794-2.9a1.117,1.117,0,0,0-1.063,0l-5.794,2.9a.352.352,0,0,0,0,.652l5.794,3.553a1.117,1.117,0,0,0,1.063,0" transform="translate(0 -36.648)"/><path class="j" d="M356.776,189.737v-3.924s0-.186-.108-.124a3.206,3.206,0,0,0-.382.237.329.329,0,0,0-.068.249v3.563a.1.1,0,0,1-.064.087.678.678,0,1,0,.684,0A.1.1,0,0,1,356.776,189.737Z" transform="translate(-344.147 -180.787)"/></g></g><text class="i" transform="translate(1678 4400)"><tspan x="0" y="0">Mr. G Subbaraju</tspan></text><path class="k" d="M11,0H204a11,11,0,0,1,11,11V70a0,0,0,0,1,0,0H0a0,0,0,0,1,0,0V11A11,11,0,0,1,11,0Z" transform="translate(1637 4205)"/><text class="l" transform="translate(1720 4247)"><tspan x="0" y="0">310</tspan></text><text class="n" transform="translate(1712 4265)"><tspan x="0" y="0">Participations</tspan></text><line class="g" y1="116" transform="translate(668.5 3931.5)"/><g class="t" transform="matrix(1, 0, 0, 1, 80.99, 3717.5)"><path class="h" d="M10,0H205a10,10,0,0,1,10,10V215a10,10,0,0,1-10,10H10A10,10,0,0,1,0,215V10A10,10,0,0,1,10,0Z" transform="translate(480.01 3.5)"/></g><text class="i" transform="translate(602 3822)"><tspan x="0" y="0">Vellore Institute of </tspan><tspan x="0" y="17">Technology</tspan></text><text class="i" transform="translate(602 3883)"><tspan x="0" y="0">Vellore</tspan></text><path class="j" d="M8.608,2A3.606,3.606,0,0,0,5,5.608c0,2.706,3.608,6.7,3.608,6.7s3.608-4,3.608-6.7A3.606,3.606,0,0,0,8.608,2Zm0,4.9A1.289,1.289,0,1,1,9.9,5.608,1.289,1.289,0,0,1,8.608,6.9Z" transform="translate(573.177 3870.92)"/><g transform="translate(576.433 3904.22)"><g transform="translate(0 0)"><path class="j" d="M17.341,5.838c.359-.077.691-.374.745-1.032.045-.539-.094-.817-.3-.958.567-2.31-1-2.762-1-2.762A2.344,2.344,0,0,0,13.344.495a4.072,4.072,0,0,0-1.009.865,3.6,3.6,0,0,0-.77,2.412c-.278.106-.5.375-.443,1.034.057.689.416.982.794,1.042a3.244,3.244,0,0,0,2.71,2.267A3.249,3.249,0,0,0,17.341,5.838Zm-2.714,1.7c-1.379,0-2.489-1.872-2.489-3.422,0-.212.007-.409.02-.592A4.729,4.729,0,0,0,16.016,2.1a4.53,4.53,0,0,1,1.1,1.964c0,.017,0,.033,0,.05C17.115,5.663,16.006,7.535,14.627,7.535Z" transform="translate(-9.261 0)"/><path class="j" d="M9.445,28.391l.16-.661a.385.385,0,0,1,.111-.192L9.667,27.5l-1.426-1.18-.868.2a3.15,3.15,0,0,0-2.5,3.01V31.4a.694.694,0,0,0,.719.661H9.261l.56-3.193A.39.39,0,0,1,9.445,28.391Z" transform="translate(-4.869 -18.513)"/><path class="j" d="M26.652,26.525l-.856-.2L24.372,27.5l-.047.036a.386.386,0,0,1,.112.192l.159.661a.39.39,0,0,1-.376.482l.56,3.193h3.673a.667.667,0,0,0,.689-.661V29.535A3.136,3.136,0,0,0,26.652,26.525Z" transform="translate(-18.478 -18.513)"/></g></g><g transform="translate(575.599 3812.584)"><g transform="translate(0 0)"><path class="j" d="M53.308,204.68a1.7,1.7,0,0,1-1.68,0l-3.8-2.332s-.343-.21-.343.266v2.329c0,1.227,2.232,2.55,4.986,2.55s4.986-1.323,4.986-2.55v-2.46c0-.383-.244-.2-.244-.2Z" transform="translate(-45.924 -196.809)"/><path class="j" d="M12.869,40.331a.352.352,0,0,0,0-.652l-5.794-2.9a1.117,1.117,0,0,0-1.063,0l-5.794,2.9a.352.352,0,0,0,0,.652l5.794,3.553a1.117,1.117,0,0,0,1.063,0" transform="translate(0 -36.648)"/><path class="j" d="M356.776,189.737v-3.924s0-.186-.108-.124a3.206,3.206,0,0,0-.382.237.329.329,0,0,0-.068.249v3.563a.1.1,0,0,1-.064.087.678.678,0,1,0,.684,0A.1.1,0,0,1,356.776,189.737Z" transform="translate(-344.147 -180.787)"/></g></g><text class="i" transform="translate(602 3917)"><tspan x="0" y="0">Dr. Samuel Rajkumar V</tspan></text><path class="k" d="M11,0H204a11,11,0,0,1,11,11V70a0,0,0,0,1,0,0H0a0,0,0,0,1,0,0V11A11,11,0,0,1,11,0Z" transform="translate(561 3721)"/><text class="l" transform="translate(644 3758)"><tspan x="0" y="0">516</tspan></text><text class="n" transform="translate(636 3779)"><tspan x="0" y="0">Participations</tspan></text><line class="g" y1="116" transform="translate(968.5 3931.5)"/><g class="s" transform="matrix(1, 0, 0, 1, 80.99, 3717.5)"><path class="h" d="M10,0H205a10,10,0,0,1,10,10V215a10,10,0,0,1-10,10H10A10,10,0,0,1,0,215V10A10,10,0,0,1,10,0Z" transform="translate(780.01 3.5)"/></g><text class="i" transform="translate(902 3822)"><tspan x="0" y="0">National Institute of </tspan><tspan x="0" y="17">Technology Raipur</tspan></text><text class="i" transform="translate(902 3883)"><tspan x="0" y="0">Raipur</tspan></text><path class="j" d="M8.608,2A3.606,3.606,0,0,0,5,5.608c0,2.706,3.608,6.7,3.608,6.7s3.608-4,3.608-6.7A3.606,3.606,0,0,0,8.608,2Zm0,4.9A1.289,1.289,0,1,1,9.9,5.608,1.289,1.289,0,0,1,8.608,6.9Z" transform="translate(875.177 3870.92)"/><g transform="translate(878.433 3904.22)"><g transform="translate(0 0)"><path class="j" d="M17.341,5.838c.359-.077.691-.374.745-1.032.045-.539-.094-.817-.3-.958.567-2.31-1-2.762-1-2.762A2.344,2.344,0,0,0,13.344.495a4.072,4.072,0,0,0-1.009.865,3.6,3.6,0,0,0-.77,2.412c-.278.106-.5.375-.443,1.034.057.689.416.982.794,1.042a3.244,3.244,0,0,0,2.71,2.267A3.249,3.249,0,0,0,17.341,5.838Zm-2.714,1.7c-1.379,0-2.489-1.872-2.489-3.422,0-.212.007-.409.02-.592A4.729,4.729,0,0,0,16.016,2.1a4.53,4.53,0,0,1,1.1,1.964c0,.017,0,.033,0,.05C17.115,5.663,16.006,7.535,14.627,7.535Z" transform="translate(-9.261 0)"/><path class="j" d="M9.445,28.391l.16-.661a.385.385,0,0,1,.111-.192L9.667,27.5l-1.426-1.18-.868.2a3.15,3.15,0,0,0-2.5,3.01V31.4a.694.694,0,0,0,.719.661H9.261l.56-3.193A.39.39,0,0,1,9.445,28.391Z" transform="translate(-4.869 -18.513)"/><path class="j" d="M26.652,26.525l-.856-.2L24.372,27.5l-.047.036a.386.386,0,0,1,.112.192l.159.661a.39.39,0,0,1-.376.482l.56,3.193h3.673a.667.667,0,0,0,.689-.661V29.535A3.136,3.136,0,0,0,26.652,26.525Z" transform="translate(-18.478 -18.513)"/></g></g><g transform="translate(877.599 3812.584)"><g transform="translate(0 0)"><path class="j" d="M53.308,204.68a1.7,1.7,0,0,1-1.68,0l-3.8-2.332s-.343-.21-.343.266v2.329c0,1.227,2.232,2.55,4.986,2.55s4.986-1.323,4.986-2.55v-2.46c0-.383-.244-.2-.244-.2Z" transform="translate(-45.924 -196.809)"/><path class="j" d="M12.869,40.331a.352.352,0,0,0,0-.652l-5.794-2.9a1.117,1.117,0,0,0-1.063,0l-5.794,2.9a.352.352,0,0,0,0,.652l5.794,3.553a1.117,1.117,0,0,0,1.063,0" transform="translate(0 -36.648)"/><path class="j" d="M356.776,189.737v-3.924s0-.186-.108-.124a3.206,3.206,0,0,0-.382.237.329.329,0,0,0-.068.249v3.563a.1.1,0,0,1-.064.087.678.678,0,1,0,.684,0A.1.1,0,0,1,356.776,189.737Z" transform="translate(-344.147 -180.787)"/></g></g><text class="i" transform="translate(902 3917)"><tspan x="0" y="0">Prof. Samir Bajpai</tspan></text><path class="k" d="M11,0H204a11,11,0,0,1,11,11V70a0,0,0,0,1,0,0H0a0,0,0,0,1,0,0V11A11,11,0,0,1,11,0Z" transform="translate(861 3721)"/><text class="l" transform="translate(944 3758)"><tspan x="0" y="0">430</tspan></text><text class="n" transform="translate(936 3779)"><tspan x="0" y="0">Participations</tspan></text><line class="g" y1="116" transform="translate(1280.5 3931.5)"/><g class="r" transform="matrix(1, 0, 0, 1, 80.99, 3717.5)"><path class="h" d="M10,0H205a10,10,0,0,1,10,10V215a10,10,0,0,1-10,10H10A10,10,0,0,1,0,215V10A10,10,0,0,1,10,0Z" transform="translate(1092.01 3.5)"/></g><text class="i" transform="translate(1214 3822)"><tspan x="0" y="0">KCG College of </tspan><tspan x="0" y="17">Technology</tspan></text><text class="i" transform="translate(1214 3883)"><tspan x="0" y="0">Chennai</tspan></text><path class="j" d="M8.608,2A3.606,3.606,0,0,0,5,5.608c0,2.706,3.608,6.7,3.608,6.7s3.608-4,3.608-6.7A3.606,3.606,0,0,0,8.608,2Zm0,4.9A1.289,1.289,0,1,1,9.9,5.608,1.289,1.289,0,0,1,8.608,6.9Z" transform="translate(1185.177 3870.92)"/><g transform="translate(1188.433 3904.22)"><g transform="translate(0 0)"><path class="j" d="M17.341,5.838c.359-.077.691-.374.745-1.032.045-.539-.094-.817-.3-.958.567-2.31-1-2.762-1-2.762A2.344,2.344,0,0,0,13.344.495a4.072,4.072,0,0,0-1.009.865,3.6,3.6,0,0,0-.77,2.412c-.278.106-.5.375-.443,1.034.057.689.416.982.794,1.042a3.244,3.244,0,0,0,2.71,2.267A3.249,3.249,0,0,0,17.341,5.838Zm-2.714,1.7c-1.379,0-2.489-1.872-2.489-3.422,0-.212.007-.409.02-.592A4.729,4.729,0,0,0,16.016,2.1a4.53,4.53,0,0,1,1.1,1.964c0,.017,0,.033,0,.05C17.115,5.663,16.006,7.535,14.627,7.535Z" transform="translate(-9.261 0)"/><path class="j" d="M9.445,28.391l.16-.661a.385.385,0,0,1,.111-.192L9.667,27.5l-1.426-1.18-.868.2a3.15,3.15,0,0,0-2.5,3.01V31.4a.694.694,0,0,0,.719.661H9.261l.56-3.193A.39.39,0,0,1,9.445,28.391Z" transform="translate(-4.869 -18.513)"/><path class="j" d="M26.652,26.525l-.856-.2L24.372,27.5l-.047.036a.386.386,0,0,1,.112.192l.159.661a.39.39,0,0,1-.376.482l.56,3.193h3.673a.667.667,0,0,0,.689-.661V29.535A3.136,3.136,0,0,0,26.652,26.525Z" transform="translate(-18.478 -18.513)"/></g></g><g transform="translate(1187.599 3812.584)"><g transform="translate(0 0)"><path class="j" d="M53.308,204.68a1.7,1.7,0,0,1-1.68,0l-3.8-2.332s-.343-.21-.343.266v2.329c0,1.227,2.232,2.55,4.986,2.55s4.986-1.323,4.986-2.55v-2.46c0-.383-.244-.2-.244-.2Z" transform="translate(-45.924 -196.809)"/><path class="j" d="M12.869,40.331a.352.352,0,0,0,0-.652l-5.794-2.9a1.117,1.117,0,0,0-1.063,0l-5.794,2.9a.352.352,0,0,0,0,.652l5.794,3.553a1.117,1.117,0,0,0,1.063,0" transform="translate(0 -36.648)"/><path class="j" d="M356.776,189.737v-3.924s0-.186-.108-.124a3.206,3.206,0,0,0-.382.237.329.329,0,0,0-.068.249v3.563a.1.1,0,0,1-.064.087.678.678,0,1,0,.684,0A.1.1,0,0,1,356.776,189.737Z" transform="translate(-344.147 -180.787)"/></g></g><text class="i" transform="translate(1214 3917)"><tspan x="0" y="0">Mr. Pavan Kashyap C R</tspan></text><path class="k" d="M11,0H204a11,11,0,0,1,11,11V70a0,0,0,0,1,0,0H0a0,0,0,0,1,0,0V11A11,11,0,0,1,11,0Z" transform="translate(1173 3721)"/><text class="l" transform="translate(1256 3758)"><tspan x="0" y="0">388</tspan></text><text class="n" transform="translate(1248 3779)"><tspan x="0" y="0">Participations</tspan></text><line class="g" y1="116" transform="translate(1592.5 3931.5)"/><g class="q" transform="matrix(1, 0, 0, 1, 80.99, 3717.5)"><path class="h" d="M10,0H205a10,10,0,0,1,10,10V215a10,10,0,0,1-10,10H10A10,10,0,0,1,0,215V10A10,10,0,0,1,10,0Z" transform="translate(1404.01 3.5)"/></g><text class="i" transform="translate(1526 3822)"><tspan x="0" y="0">Koneru Lakshmaiah</tspan><tspan x="0" y="17">Education Foundation - </tspan><tspan x="0" y="34">College of Engineering</tspan></text><text class="i" transform="translate(1526 3883)"><tspan x="0" y="0">Guntur</tspan></text><path class="j" d="M8.608,2A3.606,3.606,0,0,0,5,5.608c0,2.706,3.608,6.7,3.608,6.7s3.608-4,3.608-6.7A3.606,3.606,0,0,0,8.608,2Zm0,4.9A1.289,1.289,0,1,1,9.9,5.608,1.289,1.289,0,0,1,8.608,6.9Z" transform="translate(1498.177 3870.92)"/><g transform="translate(1501.433 3904.22)"><g transform="translate(0 0)"><path class="j" d="M17.341,5.838c.359-.077.691-.374.745-1.032.045-.539-.094-.817-.3-.958.567-2.31-1-2.762-1-2.762A2.344,2.344,0,0,0,13.344.495a4.072,4.072,0,0,0-1.009.865,3.6,3.6,0,0,0-.77,2.412c-.278.106-.5.375-.443,1.034.057.689.416.982.794,1.042a3.244,3.244,0,0,0,2.71,2.267A3.249,3.249,0,0,0,17.341,5.838Zm-2.714,1.7c-1.379,0-2.489-1.872-2.489-3.422,0-.212.007-.409.02-.592A4.729,4.729,0,0,0,16.016,2.1a4.53,4.53,0,0,1,1.1,1.964c0,.017,0,.033,0,.05C17.115,5.663,16.006,7.535,14.627,7.535Z" transform="translate(-9.261 0)"/><path class="j" d="M9.445,28.391l.16-.661a.385.385,0,0,1,.111-.192L9.667,27.5l-1.426-1.18-.868.2a3.15,3.15,0,0,0-2.5,3.01V31.4a.694.694,0,0,0,.719.661H9.261l.56-3.193A.39.39,0,0,1,9.445,28.391Z" transform="translate(-4.869 -18.513)"/><path class="j" d="M26.652,26.525l-.856-.2L24.372,27.5l-.047.036a.386.386,0,0,1,.112.192l.159.661a.39.39,0,0,1-.376.482l.56,3.193h3.673a.667.667,0,0,0,.689-.661V29.535A3.136,3.136,0,0,0,26.652,26.525Z" transform="translate(-18.478 -18.513)"/></g></g><g transform="translate(1500.599 3812.584)"><g transform="translate(0 0)"><path class="j" d="M53.308,204.68a1.7,1.7,0,0,1-1.68,0l-3.8-2.332s-.343-.21-.343.266v2.329c0,1.227,2.232,2.55,4.986,2.55s4.986-1.323,4.986-2.55v-2.46c0-.383-.244-.2-.244-.2Z" transform="translate(-45.924 -196.809)"/><path class="j" d="M12.869,40.331a.352.352,0,0,0,0-.652l-5.794-2.9a1.117,1.117,0,0,0-1.063,0l-5.794,2.9a.352.352,0,0,0,0,.652l5.794,3.553a1.117,1.117,0,0,0,1.063,0" transform="translate(0 -36.648)"/><path class="j" d="M356.776,189.737v-3.924s0-.186-.108-.124a3.206,3.206,0,0,0-.382.237.329.329,0,0,0-.068.249v3.563a.1.1,0,0,1-.064.087.678.678,0,1,0,.684,0A.1.1,0,0,1,356.776,189.737Z" transform="translate(-344.147 -180.787)"/></g></g><text class="i" transform="translate(1526 3917)"><tspan x="0" y="0">Mr. NBV Prasad</tspan></text><path class="k" d="M11,0H204a11,11,0,0,1,11,11V70a0,0,0,0,1,0,0H0a0,0,0,0,1,0,0V11A11,11,0,0,1,11,0Z" transform="translate(1485 3721)"/><text class="l" transform="translate(1568 3758)"><tspan x="0" y="0">366</tspan></text><text class="n" transform="translate(1560 3779)"><tspan x="0" y="0">Participations</tspan></text><text class="o" transform="translate(164 4063)"><tspan x="-44.499" y="0">ETCS 2018-19</tspan><tspan x="-58.121" y="17">Campuses with the</tspan><tspan x="-63.119" y="34">highest participation</tspan></text></g></svg>